<svg viewBox="0 0 800 500" preserveAspectRatio="none" xmlns="http://www.w3.org/2000/svg" xmlns:xlink="http://www.w3.org/1999/xlink" width="100%" id="blobSvg">
  <g transform="translate(162.2132110595703, -16.783279418945312)">
    <path class="blob" d="M476.5,300.5Q477,351,430.5,375Q384,399,344.5,409.5Q305,420,266,442.5Q227,465,181,457.5Q135,450,109,410.5Q83,371,73,330.5Q63,290,71,252Q79,214,81,171.5Q83,129,113,97Q143,65,186.5,60.5Q230,56,273,51.5Q316,47,339.5,85.5Q363,124,400.5,145Q438,166,457,208Q476,250,476.5,300.5Z" fill="#9FB3E0"></path>
  </g>
</svg>