<?xml version="1.0" encoding="UTF-8"?><svg xmlns="http://www.w3.org/2000/svg" viewBox="0 0 183.56 242.64"><defs><style>.d{fill:#fff;}.e{fill:#fabaae;}.f{fill:#514425;}</style></defs><g id="a"><path class="d" d="M65.82,132.44c-.09-1.95-.33-3.98-1.04-5.81-1.02-2.63-2.13-4.43-3.91-6.62s-4.97-2.82-7.56-2.48c-2.77,.37-5.13,1.85-6.57,4.3-.19,.32-.38,.62-.6,.92l1.41-1.82c-.53,.67-1.12,1.25-1.79,1.79l1.82-1.41c-2.98,2.29-6.58,3.57-9.6,5.82-4.05,3.01-7.32,6.33-10.25,10.45-2.46,3.46-4.29,7.47-5.56,11.51-.77,2.46-1.14,4.95-1.47,7.5-.25,1.97-.16,3.95-.39,5.92l.32-2.39c-.08,.44-.19,.82-.35,1.24l.91-2.15c-.17,.34-.34,.62-.56,.93l1.41-1.82c-.63,.77-1.39,1.38-2.1,2.07-1.08,1.03-2.02,2.28-2.86,3.49-1.32,1.94-2.25,4.22-2.87,6.48-1.17,4.28-1.27,8.87-1.17,13.28s.49,9.18,1.87,13.49c.77,2.38,1.76,4.81,3.13,6.92,1.48,2.27,3.39,4.11,5.03,6.23l-1.41-1.82c.4,.57,.74,1.14,1.02,1.77l-.91-2.15c.24,.63,.4,1.25,.51,1.91l-.32-2.39c.33,2.48-.14,4.93-.39,7.4-.28,2.81-.14,5.79,.72,8.5,1.84,5.74,5.98,10.67,11.31,13.5s11.78,3.85,17.95,2.51c6.85-1.49,12.17-6.44,14.52-12.96,2.11-5.85,.67-12.05,1.43-18.06l-.32,2.39c.33-2.3,.94-4.52,1.83-6.67l-.91,2.15c.87-2.01,1.95-3.88,3.27-5.63l-1.41,1.82c.85-1.09,1.74-2.16,2.84-3.01l-1.82,1.41c.36-.24,.7-.44,1.09-.62l-2.15,.91c.53-.19,1.04-.32,1.59-.41l-2.39,.32c2.59-.27,5.24,.15,7.84,.04,3.43-.15,6.85-.63,10.23-1.19,5.45-.9,10.82-2.21,16.3-2.96l-2.39,.32c3.65-.48,7.39-.76,11.05-.31l-2.39-.32c.65,.1,1.28,.24,1.9,.47l-2.15-.91c.47,.2,.88,.44,1.29,.74l-1.82-1.41c.33,.28,.61,.57,.88,.91l-1.41-1.82c.24,.35,.44,.7,.61,1.08l-.91-2.15c.29,.71,.45,1.43,.57,2.19l-.32-2.39c.25,2.09,.05,4.19,.07,6.28,.03,3.23,.61,6.55,1.56,9.64,.76,2.46,1.75,4.83,2.71,7.21s2.09,4.79,2.52,7.28l-.32-2.39c.03,.21,.03,.42,.02,.64l.32-2.39c-.02,.2-.07,.38-.16,.56l.91-2.15-.17,.22,3.23-3.23-.24,.17,2.15-.91-.32,.1,2.39-.32-.33-.02,2.39,.32-.33-.11,2.15,.91c-.23-.1-.43-.24-.62-.4l1.82,1.41c-.59-.53-1.1-1.12-1.59-1.75l1.41,1.82c-.71-.98-1.3-2.01-1.77-3.12l.91,2.15c-.44-1.13-.75-2.27-.92-3.47l.32,2.39c-.09-.8-.13-1.59-.1-2.39l-17.68,2.39c1.74,6.57,5.03,13.35,11.49,16.43,5.8,2.77,11.95,3,18.24,2.37v-18c-2.32,.24-4.65,.36-6.96,.05l2.39,.32c-1.12-.17-2.2-.45-3.26-.88l2.15,.91c-.81-.36-1.54-.79-2.24-1.32l1.82,1.41c-.59-.49-1.11-1.02-1.6-1.62l1.41,1.82c-.77-1.03-1.36-2.13-1.86-3.31l.91,2.15c-1.33-3.31-2.11-6.86-3.07-10.29l-3.2-11.48c-1.02-3.67-4.75-6.78-8.68-6.61-4.15,.19-7.33,2.71-8.68,6.61-3.8,10.98-.35,24.78,8.57,32.36,2.26,1.92,4.63,3.62,7.36,4.8,3.44,1.49,6.57,2.34,10.29,2.8,5.98,.74,13.06-.42,17.89-4.15,3.86-2.99,5.83-7.79,5.63-12.65-.16-3.73-1.55-7.06-2.07-10.69l.32,2.39c-.1-.87-.11-1.72-.01-2.59l-.32,2.39c.16-1.1,.47-2.13,.89-3.16l-.91,2.15c.72-1.68,1.66-3.24,2.57-4.82,1.28-2.23,2.33-4.54,3.3-6.92,1.6-3.97,2.52-8.54,2.06-12.82-.56-5.26-2.32-9.82-5.73-13.9-1.4-1.68-3.22-3.13-5.13-4.18-1.47-.8-3.07-1.28-4.43-2.28l1.82,1.41c-.4-.33-.73-.67-1.05-1.08l1.41,1.82c-.21-.31-.37-.61-.53-.94l.91,2.15c-.22-.57-.36-1.13-.44-1.73l.32,2.39c-.09-1.02-.03-2.02,.1-3.03l-.32,2.39c.46-3.33,1.27-6.65,1.06-10.03s-.88-6.89-2.19-10.12-2.84-6.36-4.87-9.26c-1.92-2.73-4-5.53-6.49-7.79-2.91-2.65-6.39-4.93-10.29-5.81s-7.44-.67-11.23-.47l-19.65,1.07c-6.68,.36-13.41,.85-20.07,0l2.39,.32c-3.15-.44-6.22-1.19-9.16-2.42l2.15,.91c-.53-.23-1.06-.48-1.58-.73-4.36-2.15-9.71-1.21-12.31,3.23-.97,1.65-2.03,3.23-3.2,4.75l1.41-1.82c-2.27,2.91-4.88,5.53-7.79,7.81l1.82-1.41c-2.88,2.21-6.12,3.85-9.05,5.97-2.28,1.65-4.24,3.27-5.96,5.49s-2.86,4.4-3.74,7.04c-2.5,7.48-.2,15.28-1.16,22.9l.32-2.39c-.31,2.17-.98,4.2-1.82,6.22l.91-2.15c-1.44,3.37-3.2,6.67-4.14,10.23-1.08,4.12-1.03,8.24-.13,12.38,1.31,6.03,4.81,11.35,7.22,16.96l-.91-2.15c.91,2.16,1.63,4.37,1.96,6.7l-.32-2.39c.03,.24,.06,.49,.08,.73,.2,2.06,.64,3.78,1.93,5.45,1.09,1.42,2.84,2.92,4.68,3.23,2.43,.4,4.51,.61,6.93-.11,2.28-.68,4.13-1.81,5.91-3.35,2.52-2.2,4.34-5.5,4.99-8.77,1-5.02,.34-10.11,1.01-15.16l-.32,2.39c.25-1.68,.64-3.3,1.29-4.87l-.91,2.15c.47-1.07,1.05-2.06,1.75-2.99l-1.41,1.82c.72-.89,1.53-1.66,2.43-2.36l-1.82,1.41c1.34-.99,2.78-1.76,4.3-2.41l-2.15,.91c4.16-1.73,8.63-2.79,13.01-3.81,4.83-1.12,9.72-2.01,14.63-2.67l-2.39,.32c4.44-.59,8.91-.99,13.38-1.2,3.66-.17,7.32-.22,10.95,.26l-2.39-.32c2.17,.31,4.3,.82,6.34,1.64l-2.15-.91c1.31,.56,2.54,1.24,3.69,2.09l-1.82-1.41c.98,.76,1.85,1.61,2.63,2.57l-1.41-1.82c1.17,1.52,2.05,3.19,2.8,4.94l-.91-2.15c1.31,3.19,2.34,6.5,3.45,9.76l3.62,10.57c1.24,3.63,4.59,6.8,8.68,6.61,4.33-.2,8.12-2.44,10.21-6.3,1.13-2.08,1.86-4.46,2.5-6.73,1.2-4.31,1.95-8.88,1.95-13.36,0-5.17-1.09-10.07-3.15-14.78-1.62-3.72-4.11-6.96-5.69-10.7l.91,2.15c-1.63-4-2.5-8.22-3.08-12.48l.32,2.39c-.31-2.33-.52-4.67-.76-7.01s-.47-4.95-1.36-7.23c-1.36-3.47-3.4-6.76-6.84-8.54-3.25-1.68-6.62-1.94-10.2-2.14l-31.15-1.75c-5.6-.32-11.37-1.12-16.94-.18-5.02,.85-9.21,4.34-13.13,7.34-2.23,1.71-4.46,3.42-6.51,5.34s-3.7,3.95-5.34,6.14c-3.11,4.16-4.86,9.17-6.21,14.14-.71,2.64-1.3,5.51-1.01,8.25,.26,2.47,.67,4.57,1.94,6.75,1.13,1.93,2.84,3.66,4.75,4.82,3.52,2.14,8.21,2.58,12.12,1.34s6.68-3.5,9.6-6.06c1.67-1.46,2.64-4.21,2.64-6.36s-.98-4.84-2.64-6.36-3.97-2.74-6.36-2.64-4.45,1.02-6.36,2.64c-1.37,1.16-2.76,2.28-4.18,3.38l1.82-1.41c-6.75,5.21-13.99,9.73-21.64,13.49l9.08,15.54c8.79-5.52,17.67-11,27.24-15.08l-2.15,.91c5.97-2.51,12.17-4.42,18.59-5.3l-2.39,.32c11.92-1.54,23.9,1.8,35.75-.91,3.73-.85,7.6-2.32,10.46-4.92,3.73-3.38,4.81-9,3.4-13.71-2.24-7.47-8.81-12.09-15.8-14.66-3.24-1.19-6.67-1.7-10.08-2.1-2.91-.34-5.84-.41-8.76-.21-6.55,.44-13,1.78-19.2,3.92s-12.4,4.96-18.38,7.88c-2.93,1.43-6.23,2.69-8.42,5.21-1.98,2.28-3.39,5-3.25,8.1,.08,1.8,.53,3.46,1.47,5.01,1.88,3.08,4.94,4.54,8.46,4.68,7.31,.29,14.75-1.18,21.85-2.78,6.64-1.5,13.23-3.26,19.99-4.17l-2.39,.32c4.72-.61,9.47-.8,14.19-.17l-2.39-.32c1.97,.28,3.89,.7,5.79,1.28,4.5,1.37,10.01-1.64,11.07-6.29s-1.46-9.6-6.29-11.07c-9.51-2.9-19.49-2.17-29.12-.42-8.61,1.56-16.99,4.17-25.67,5.37l2.39-.32c-3.29,.44-6.58,.66-9.9,.56l6.36,2.64-.22-.2,1.41,1.82-.15-.22,.91,2.15-.09-.24,.32,2.39c-.04-.17-.04-.34-.01-.52l-.32,2.39c.03-.19,.1-.37,.18-.54l-.91,2.15c.09-.19,.21-.37,.34-.54l-1.41,1.82c.3-.37,.62-.68,.98-.99l-1.82,1.41c1.03-.75,2.25-1.24,3.39-1.8,1.34-.66,2.68-1.32,4.03-1.97,2.62-1.26,5.26-2.48,7.94-3.61l-2.15,.91c6.34-2.66,12.88-4.8,19.7-5.76l-2.39,.32c4.29-.57,8.61-.66,12.91-.1l-2.39-.32c2.91,.41,5.77,1.08,8.49,2.22l-2.15-.91c1.41,.62,2.74,1.36,3.99,2.28l-1.82-1.41c1,.78,1.9,1.64,2.69,2.64l-1.41-1.82c.53,.71,.97,1.44,1.33,2.25l-.91-2.15c.22,.59,.39,1.17,.49,1.79l-.32-2.39c.05,.48,.06,.94,0,1.43l.32-2.39c-.06,.36-.15,.67-.27,1.01l.91-2.15c-.16,.34-.32,.61-.54,.91l1.41-1.82c-.26,.29-.51,.52-.82,.76l1.82-1.41c-.65,.44-1.34,.76-2.06,1.07l2.15-.91c-2.29,.92-4.67,1.5-7.11,1.83l2.39-.32c-5.36,.66-10.75,.18-16.12-.16-6.07-.39-11.91-.21-17.93,.73-11.04,1.72-21.54,6.46-31.25,11.82-5.26,2.9-10.37,6.08-15.46,9.28-3.98,2.5-5.92,8.14-3.23,12.31,1.24,1.92,3.08,3.61,5.38,4.14,2.46,.56,4.67,.21,6.94-.91,9.96-4.9,19.16-11.13,27.64-18.29l-12.73-12.73c-.65,.57-1.3,1.13-1.98,1.67l1.82-1.41c-.92,.7-1.86,1.31-2.91,1.79l2.15-.91c-.7,.28-1.4,.48-2.15,.59l2.39-.32c-.61,.06-1.19,.05-1.8-.02l2.39,.32c-.47-.09-.91-.21-1.35-.39l2.15,.91c-.33-.16-.61-.32-.91-.53l1.82,1.41c-.37-.3-.67-.61-.96-.98l1.41,1.82c-.19-.28-.35-.55-.5-.86l.91,2.15c-.22-.52-.36-1.04-.46-1.6l.32,2.39c-.14-1.07-.09-2.13,.05-3.19l-.32,2.39c.49-3.14,1.51-6.3,2.7-9.23l-.91,2.15c.88-2.06,1.98-3.96,3.34-5.75l-1.41,1.82c2.42-3.11,5.39-5.69,8.5-8.09l-1.82,1.41c2.72-2.08,5.51-4.46,8.68-5.81l-2.15,.91c.82-.31,1.64-.53,2.51-.66l-2.39,.32c3.88-.43,7.97,.17,11.85,.39l12.36,.7,12.36,.7c4,.23,8.04,.29,12.02,.71l-2.39-.32c.68,.09,1.33,.23,1.98,.45l-2.15-.91c.46,.2,.87,.42,1.28,.71l-1.82-1.41c.42,.34,.78,.71,1.12,1.14l-1.41-1.82c.31,.45,.57,.91,.8,1.41l-.91-2.15c.53,1.28,.8,2.61,.99,3.97l-.32-2.39c.77,6.19,1.11,12.46,2.78,18.5,.91,3.3,2.21,6.55,3.85,9.55,1.41,2.58,3.09,4.98,4.25,7.69l-.91-2.15c.81,1.99,1.35,4.04,1.65,6.17l-.32-2.39c.37,2.87,.32,5.74-.04,8.6l.32-2.39c-.47,3.51-1.29,7.09-2.62,10.38l.91-2.15c-.24,.53-.51,1.02-.86,1.49l1.41-1.82c-.14,.17-.29,.32-.45,.46l1.82-1.41c-.16,.13-.33,.25-.52,.34l2.15-.91c-.19,.09-.38,.15-.59,.17l2.39-.32h-.32l8.68,6.62-4.64-13.56c-1.53-4.47-2.88-9.33-5.65-13.21-1.91-2.68-3.85-4.62-6.49-6.55-1.96-1.43-4.26-2.39-6.53-3.22-4.02-1.47-8.49-1.91-12.75-2.01-9.58-.24-19.35,1.01-28.76,2.7-4.65,.83-9.25,1.88-13.8,3.13s-8.88,2.53-12.64,5.05c-5.2,3.47-8.91,8.59-10.14,14.78-.56,2.8-.83,5.68-.9,8.53-.05,2.38,.08,4.77-.2,7.13l.32-2.39c-.15,1.02-.38,1.97-.77,2.93l.91-2.15c-.27,.6-.59,1.14-.99,1.66l1.41-1.82c-.33,.39-.67,.74-1.06,1.07l1.82-1.41c-.4,.3-.81,.56-1.26,.78l2.15-.91c-.46,.19-.9,.32-1.38,.41l2.39-.32c-.37,.04-.71,.04-1.08,.01l2.39,.32-.36-.06,6.61,8.68c-.22-2.26-.53-4.52-1.2-6.7s-1.64-4.37-2.6-6.48c-1.37-3.02-2.98-5.92-4.27-8.97l.91,2.15c-.83-2.01-1.49-4.06-1.79-6.22l.32,2.39c-.16-1.34-.16-2.66,0-4l-.32,2.39c.31-2.06,.99-3.98,1.79-5.89l-.91,2.15c1.24-2.88,2.64-5.7,3.65-8.67s1.38-6.12,1.47-9.21c.14-4.78-.68-9.56-.11-14.32l-.32,2.39c.2-1.48,.55-2.91,1.11-4.29l-.91,2.15c.47-1.05,1.04-2.03,1.74-2.94l-1.41,1.82c.83-1.02,1.77-1.89,2.8-2.7l-1.82,1.41c1.9-1.45,3.99-2.61,6.01-3.88,2.6-1.63,5.08-3.51,7.39-5.53,4.15-3.62,7.71-8.08,10.49-12.82l-12.31,3.23c7.8,3.85,16.29,4.99,24.92,4.86,7.98-.12,15.97-.76,23.94-1.2,4.48-.24,9.16-.89,13.63-.42l-2.39-.32c1.17,.16,2.27,.43,3.36,.87l-2.15-.91c1.1,.49,2.11,1.1,3.07,1.82l-1.82-1.41c1.93,1.52,3.54,3.35,5.04,5.28l-1.41-1.82c2,2.62,3.75,5.41,5.07,8.44l-.91-2.15c.87,2.08,1.52,4.22,1.86,6.46l-.32-2.39c.24,1.81,.27,3.61,.04,5.43l.32-2.39c-.33,2.35-.81,4.67-1.02,7.04-.27,3.01,.37,6.01,1.74,8.69,1.28,2.52,3.67,4.71,6.18,5.97,1.54,.77,3.11,1.34,4.49,2.39l-1.82-1.41c.75,.61,1.42,1.29,2.02,2.05l-1.41-1.82c.74,.98,1.33,2.03,1.81,3.16l-.91-2.15c.5,1.27,.84,2.56,1.03,3.91l-.32-2.39c.18,1.53,.14,3.05-.05,4.58l.32-2.39c-.33,2.23-.98,4.36-1.85,6.45l.91-2.15c-1.9,4.38-4.91,8.23-6.24,12.88-.94,3.29-.8,6.54-.18,9.86,.4,2.13,1.19,4.16,1.51,6.3l-.32-2.39c.12,1,.14,1.97,.01,2.97l.32-2.39c-.1,.6-.25,1.16-.48,1.73l.91-2.15c-.2,.44-.44,.83-.72,1.21l1.41-1.82c-.25,.29-.5,.54-.8,.79l1.82-1.41c-.55,.41-1.13,.71-1.75,.99l2.15-.91c-1.53,.6-3.11,1-4.74,1.24l2.39-.32c-1.98,.25-3.96,.25-5.95,0l2.39,.32c-1.98-.29-3.89-.81-5.74-1.57l2.15,.91c-1.72-.74-3.32-1.67-4.81-2.81l1.82,1.41c-1.38-1.09-2.59-2.31-3.67-3.69l1.41,1.82c-1.13-1.5-2.04-3.11-2.78-4.83l.91,2.15c-.75-1.85-1.26-3.77-1.54-5.75l.32,2.39c-.24-1.98-.24-3.96,.03-5.95l-.32,2.39c.21-1.36,.53-2.68,.98-3.97h-17.36l3.4,12.19c1.18,4.23,2.24,8.44,4.09,12.44,2.25,4.86,6.49,8.21,11.46,9.95,3.75,1.31,8.01,1.29,11.92,.88,2.45-.26,4.56-.83,6.36-2.64,1.56-1.56,2.74-4.12,2.64-6.36s-.87-4.74-2.64-6.36c-1.66-1.52-4.03-2.87-6.36-2.64-3.04,.3-6.09,.52-9.13,.15l2.39,.32c-1.34-.19-2.64-.5-3.9-.99l2.15,.91c-1.01-.43-1.94-.96-2.81-1.63l1.82,1.41c-.69-.57-1.3-1.2-1.86-1.9l1.41,1.82c-.77-1.04-1.38-2.16-1.89-3.35l.91,2.15c-.6-1.45-1.05-2.95-1.45-4.46-1.15-4.34-5.53-7.03-9.87-6.45s-7.65,4.32-7.8,8.84,1.21,9.6,3.9,13.37c2.05,2.87,4.47,5.62,8.04,6.55,6.26,1.63,12.61-3.23,12.61-9.71,0-4.07-1.93-8.01-3.42-11.71-1.38-3.41-2.7-6.86-3.21-10.53l.32,2.39c-.52-4.37,.46-8.84-1.02-13.1-1.2-3.47-3.38-6.5-6.68-8.25-3.03-1.6-6.4-1.97-9.78-2.05-9.9-.23-19.5,2.81-29.22,4.16l2.39-.32c-2.23,.3-4.48,.51-6.73,.54-2.03,.03-4.06-.26-6.08-.12-4.16,.27-7.81,1.8-10.71,4.84-1.78,1.87-3.39,4.01-4.7,6.24-2.73,4.63-4.11,9.62-4.7,14.91-.44,4,.2,8.03-.3,12.02l.32-2.39c-.17,1.17-.45,2.3-.88,3.4l.91-2.15c-.36,.83-.79,1.59-1.33,2.31l1.41-1.82c-.51,.64-1.07,1.19-1.71,1.71l1.82-1.41c-.84,.63-1.73,1.14-2.7,1.56l2.15-.91c-1.11,.44-2.24,.74-3.41,.92l2.39-.32c-1.43,.19-2.84,.2-4.27,.03l2.39,.32c-1.53-.21-2.99-.62-4.41-1.21l2.15,.91c-1.3-.57-2.51-1.28-3.65-2.14l1.82,1.41c-1.01-.8-1.91-1.68-2.72-2.69l1.41,1.82c-.7-.92-1.27-1.89-1.73-2.94l.91,2.15c-.39-.97-.66-1.95-.8-2.98l.32,2.39c-.4-3.59,.81-7.12,.52-10.7-.25-3.09-.89-6.05-2.61-8.68-1.34-2.05-3.11-3.68-4.59-5.6l1.41,1.82c-.94-1.27-1.69-2.62-2.3-4.07l.91,2.15c-.89-2.22-1.42-4.54-1.74-6.9l.32,2.39c-.57-4.51-.69-9.25-.14-13.77l-.32,2.39c.24-1.74,.63-3.43,1.3-5.06l-.91,2.15c.4-.9,.87-1.73,1.45-2.53l-1.41,1.82c.69-.89,1.51-1.61,2.33-2.38,1.83-1.72,3.17-3.78,3.96-6.17,.98-2.97,.57-6.27,.98-9.35l-.32,2.39c.4-2.73,1.13-5.37,2.17-7.92l-.91,2.15c1.17-2.77,2.68-5.37,4.52-7.75l-1.41,1.82c1.71-2.16,3.65-4.11,5.83-5.8l-1.82,1.41c2.17-1.64,4.53-2.85,6.91-4.14,3.46-1.89,6.57-4.4,8.6-7.84l-14.14,1.82,.26,.32-1.41-1.82c.5,.67,.91,1.37,1.26,2.13l-.91-2.15c.31,.78,.54,1.55,.68,2.38l-.32-2.39c.06,.41,.09,.82,.11,1.23,.11,2.37,.93,4.66,2.64,6.36,1.56,1.56,4.12,2.74,6.36,2.64,4.69-.21,9.23-3.96,9-9h0Z"/><path class="d" d="M63.06,134.13c2.41-2.52,3.93-5.88,3.79-9.41-.12-3.21-1.64-6.12-4.46-7.77s-6.3-1.62-9.08,0l-3.04,1.77,10.91,14.14c2.57-2.16,5.11-4.39,7.75-6.47l-1.82,1.41c1.44-1.11,2.94-2.06,4.62-2.78l-2.15,.91c3.89-1.58,8.26-2.71,12.42-3.28l-2.39,.32c1.87-.22,3.7-.23,5.57,0l-2.39-.32c4.28,.59,8.5,1.84,12.7,2.86,3.66,.88,7.33,1.73,10.82,3.17l-2.15-.91c1.86,.8,3.62,1.75,5.23,2.98l-1.82-1.41c1.42,1.12,2.62,2.44,3.85,3.77,1.65,1.78,3.47,3.35,5.5,4.69,4.67,3.09,12.05,.13,13.22-5.38,1-4.7,.24-9.61-2.62-13.54-1.7-2.34-3.37-3.95-5.77-5.6-1.79-1.23-3.88-2.04-5.89-2.82-3.15-1.22-6.48-2.02-9.72-2.96-3.45-1-6.9-2.15-10.43-2.84-8.12-1.59-16.39-.71-24.22,1.89-3.85,1.28-7.6,2.9-11.29,4.57-3.11,1.41-6.34,2.75-9.25,4.53-6.99,4.26-12.51,11.77-13.66,19.98-.35,2.5-.43,4.66,.91,6.94,1.09,1.87,3.23,3.65,5.38,4.14,2.3,.52,4.89,.41,6.94-.91,1.82-1.17,3.82-3.13,4.14-5.38,.25-1.77,.71-3.46,1.39-5.11l-.91,2.15c.71-1.64,1.59-3.16,2.67-4.58l-1.41,1.82c1.1-1.4,2.34-2.65,3.75-3.74l-1.82,1.41c2.13-1.58,4.53-2.69,6.92-3.81s4.97-2.32,7.49-3.38l-2.15,.91c4.63-1.93,9.39-3.52,14.38-4.24l-2.39,.32c2.95-.39,5.91-.47,8.88-.11l-2.39-.32c4.04,.55,7.94,1.88,11.84,3,3.67,1.06,7.45,1.94,10.98,3.41l-2.15-.91c1.3,.57,2.51,1.24,3.64,2.09l-1.82-1.41c.69,.56,1.3,1.18,1.86,1.87l-1.41-1.82c.53,.72,.97,1.46,1.32,2.28l-.91-2.15c.22,.58,.38,1.16,.49,1.78l-.32-2.39c.08,.62,.09,1.21,.03,1.83l.32-2.39c-.03,.25-.07,.49-.13,.73l13.22-5.38c-.33-.22-.65-.44-.97-.68l1.82,1.41c-1.76-1.42-3.16-3.18-4.76-4.77-1.99-1.98-4.34-3.74-6.84-5.04-4.74-2.46-9.83-3.77-14.98-5.01-5.69-1.37-11.55-3.23-17.44-3.36-5.53-.12-11.56,1.45-16.76,3.3-1.92,.68-3.88,1.46-5.64,2.51s-3.35,2.36-4.92,3.64c-2.38,1.93-4.7,3.94-7.04,5.91-1.61,1.35-2.73,4.31-2.64,6.36s.68,3.84,1.93,5.45c2.71,3.51,7.7,4.59,11.61,2.32l3.04-1.77-13.54-7.77c.02,.25,.02,.5-.01,.75l.32-2.39c-.06,.39-.15,.71-.29,1.08l.91-2.15c-.1,.23-.22,.45-.36,.65l1.41-1.82c-.14,.21-.31,.39-.49,.57-3.25,3.41-3.64,9.39,0,12.73s9.25,3.64,12.73,0h0Z"/></g><g id="b"><g><path class="e" d="M70.78,200.81c5.57-5.09,13.32-7.19,20.86-7.53,4.46-.2,9.33,.32,12.6,3.37-9.86,3.05-20.51,2.98-30.27,6.34l1.5,.05"/><path class="e" d="M72.9,202.93c4.1-3.68,9.5-5.56,14.89-6.32,4.59-.65,10.72-1.09,14.33,2.15l1.32-5.01c-9.9,3.02-20.45,3.01-30.27,6.34-3.18,1.08-2.67,5.77,.8,5.89l1.5,.05c3.86,.14,3.86-5.86,0-6l-1.5-.05,.8,5.89c9.82-3.33,20.37-3.33,30.27-6.34,2.05-.63,3.06-3.45,1.32-5.01-5.21-4.68-12.6-4.72-19.16-3.84s-13.36,3.35-18.54,8c-1.21,1.08-1.1,3.14,0,4.24,1.2,1.2,3.03,1.09,4.24,0h0Z"/></g></g><g id="c"><path class="f" d="M41.26,120.88c-6.49,2.42-11.75,6.85-15.3,12.81s-5.16,12.54-6,19.24c-.1,.77-.18,1.55-.25,2.33-.08,.86-.06,1.6-.21,2.18-.33,1.28-1.27,2.42-2.29,3.5-1.27,1.34-2.83,2.49-3.97,3.94s-1.97,3.22-2.7,4.89c-2.97,6.73-3.85,13.99-2.71,21.25,1.23,7.82,5.09,15.18,10.64,20.8l-.88-2.12c-.06,4.73-1.71,9.34-1.15,14.09,.45,3.77,2.83,7.31,5.47,9.96,4.83,4.83,11.6,7.47,18.27,8.44,3.47,.5,6.86,.7,10.33,.01,3.06-.61,6.07-1.91,8.6-3.75,5.22-3.78,8.64-9.24,10.92-15.2,2.43-6.35,3.48-13.33,3.44-20.11l-3.8,2.89c13.27,1.94,26.39-.57,39.37-3.26l-3.69-3.69c-3.18,11.92-2.58,27.63,8.37,35.5,5.88,4.22,13.41,5.61,20.51,4.84,6.17-.67,12.52-2.59,17.74-6.01,2.67-1.75,4.97-3.88,6.82-6.49,.96-1.36,1.69-2.85,2.31-4.4,.43-1.07,.54-1.93,.23-3.07-.24-.91-.5-1.81-.64-2.75-1.1-7.42,2.42-14.6,4.85-21.39,2.19-6.13,2.42-13.1,.12-19.23-1.22-3.25-2.96-6.15-5.16-8.82-1.07-1.29-2.24-2.49-3.5-3.6-1.09-.96-2.35-1.8-2.39-3.48-.01-.54,.23-1.16,.34-1.71,.2-1.05,.35-2.12,.46-3.18,.17-1.59,.19-3.19,.08-4.79-.24-3.26-.97-6.44-2.22-9.47-2.48-6.02-6.51-11.23-11.25-15.66-1.15-1.08-2.34-2.1-3.56-3.1s-3.01-1.23-4.24,0c-1.06,1.06-1.26,3.21,0,4.24,4.94,4.02,9.37,8.58,12.33,14.2,1.37,2.61,2.4,5.58,2.81,8.51,.45,3.22-.02,6.42-.67,9.66-.41,2.09,.42,4.64,1.57,6.39,1.02,1.56,2.54,2.58,3.85,3.88,2.31,2.27,4.23,4.91,5.53,7.9,2.44,5.63,1.98,11.78-.25,17.64-3.24,8.56-6.64,17.62-3.7,26.79v-1.6c-1.52,4.41-4.91,7.51-9.08,9.7s-9.27,3.7-14.23,3.98c-5.56,.31-11.06-.85-15.63-4.17-3.95-2.88-5.84-7.76-6.67-12.45-.94-5.26-.34-11.01,1.06-16.27,.62-2.31-1.48-4.15-3.69-3.69-11.82,2.45-24.07,5.03-36.18,3.26-1.88-.27-3.81,.75-3.8,2.89,0,1.27-.03,2.54-.1,3.8-.04,.61-.09,1.22-.14,1.83-.03,.29-.06,.57-.09,.86-.02,.19-.12,1.06-.1,.9-.28,2.18-.92,5.27-1.65,7.73-1.44,4.89-3.68,9.58-7.15,13.1-.43,.43-.87,.85-1.33,1.25-.25,.21-.5,.42-.76,.62,.39-.3-.28,.2-.41,.28-.5,.35-1.02,.67-1.55,.98-.29,.16-.58,.32-.87,.47-.13,.06-.25,.13-.38,.19-.06,.03-.73,.33-.43,.2-.77,.33-2.44,.84-3.59,1.07-.2,.04-.4,.08-.6,.11,0,0-.5,.08-.22,.04,.13-.02-.53,.06-.7,.07-.76,.07-1.52,.06-2.28,.03-.66-.03-1.31-.07-1.97-.13-.83-.07-1.18-.11-1.68-.19-1.47-.23-2.94-.53-4.38-.92-2.93-.8-5.1-1.67-7.69-3.33-2.12-1.35-4.14-3.24-5.48-5.36-.85-1.35-1.47-2.36-1.58-3.87-.13-1.94,.1-3.88,.4-5.79,.35-2.22,.75-4.45,.83-6.71,.05-1.42-.41-2.31-1.38-3.33-.59-.62-1.16-1.26-1.7-1.92-1.83-2.22-3.62-5.25-4.7-7.86-2.48-6-3.19-12.59-1.86-18.79,.71-3.32,1.89-6.37,3.62-9.27,.83-1.39,2.33-2.44,3.48-3.61,1.25-1.27,2.48-2.66,3.31-4.25,1.59-3.05,1.33-6.85,1.83-9.93s1.3-6.36,2.42-9.4c1.97-5.33,5.46-10.42,10.34-13.42,1.31-.8,2.6-1.44,3.91-1.93,1.52-.57,2.55-2.03,2.1-3.69-.4-1.46-2.16-2.66-3.69-2.1h0Z"/><path class="f" d="M43.38,126.59c.21-.04,.38-.13,.59-.21,.19-.08,.38-.15,.56-.26,.31-.2,.63-.44,.88-.72,.4-.45,.69-.9,.95-1.43,.34-.72,.77-1.4,1.25-2.04l-.47,.61c.63-.81,1.37-1.54,2.18-2.17l-.61,.47c.1-.08,.2-.15,.31-.23,.35-.19,.63-.45,.84-.77,.27-.29,.44-.63,.54-1.02,.2-.72,.11-1.67-.3-2.31s-1.03-1.2-1.79-1.38-1.67-.17-2.31,.3-1.32,.99-1.91,1.56c-.52,.5-.97,1.04-1.41,1.61s-.82,1.1-1.16,1.7c-.26,.46-.44,.98-.76,1.41l.47-.61c-.08,.1-.16,.19-.26,.27l.61-.47c-.08,.06-.17,.11-.26,.15l.72-.3c-.08,.03-.15,.05-.23,.06-.71,.14-1.44,.78-1.79,1.38-.38,.64-.54,1.59-.3,2.31s.68,1.43,1.38,1.79c.74,.39,1.48,.46,2.31,.3h0Z"/><path class="f" d="M126.13,120.06c.06,.12,.12,.23,.18,.35l-.3-.72c.13,.32,.22,.64,.27,.98l-.11-.8c.03,.3,.03,.58-.01,.88l.11-.8c-.05,.3-.13,.58-.25,.86l.3-.72c-.04,.08-.07,.16-.11,.24-.44,.88-.54,1.76-.15,2.67,.34,.81,1.04,1.55,1.94,1.74,1.81,.38,3.59,.92,5.3,1.64l-.72-.3c.85,.36,1.68,.76,2.48,1.2,1.38,.75,3.33,.38,4.1-1.08s.39-3.3-1.08-4.1c-2.65-1.45-5.54-2.52-8.5-3.14l1.79,4.41c1.04-2.05,1.05-4.32-.08-6.34-.77-1.37-2.76-1.94-4.1-1.08s-1.9,2.64-1.08,4.1h0Z"/><path class="f" d="M49.39,120.15c6.56-9.14,18.4-13.31,29.21-14.39,11.53-1.15,23.23,1.03,33.79,5.75,2.93,1.31,5.78,2.8,8.54,4.43,1.06,.63,2.17,1.22,2.91,2.25,.8,1.12,1.23,2.45,1.68,3.74,.53,1.53,2.06,2.54,3.69,2.1,1.49-.41,2.63-2.15,2.1-3.69-1.08-3.15-2.34-6.07-5.08-8.12-2.43-1.81-5.26-3.22-7.97-4.56-5.78-2.85-11.87-5.12-18.17-6.51-12.79-2.83-26.54-2.25-38.71,2.8-6.9,2.86-12.78,7.06-17.16,13.17-.95,1.32-.23,3.34,1.08,4.1,1.51,.88,3.16,.24,4.1-1.08h0Z"/></g></svg>