<?xml version="1.0" encoding="UTF-8"?><svg xmlns="http://www.w3.org/2000/svg" viewBox="0 0 183.56 242.64"><defs><style>.f{fill:#fff;}.g{fill:#0a2589;}.h{fill:#fabaae;}.i{fill:#514425;}</style></defs><g id="a"><path class="f" d="M92.06,15c-2.39-5.24-7.31-8.68-12.49-10.74s-11.2-1.81-16.54-.56c-9.38,2.19-18.08,8.06-23.35,16.14-2.9,4.45-4.59,10.12-4.18,15.45l17.68-2.39c-1.78-6.65-8.08-10.74-14.74-10.97-5.65-.2-11.16,3.05-14.82,7.14-3.35,3.74-6.02,8.19-7.27,13.08-.63,2.44-1.02,5.1-.84,7.64,.24,3.43,1.02,6.13,2.44,9.24l10.16-13.22c-2.77-1.09-5.98-.96-8.85-.35-3.02,.64-5.59,2.29-7.96,4.19-3.33,2.68-5.45,6.69-7.17,10.51-.62,1.37-1.35,2.76-1.62,4.25-.39,2.14-.47,4.08,.11,6.2,.84,3.08,3.19,5.89,6.02,7.34,4.44,2.29,9.62,2.37,14.21,.47,2.33-.97,4.52-2.04,6.7-3.31,1.69-.98,3.37-1.97,5.16-2.75l-2.15,.91c1.24-.51,2.5-.9,3.83-1.09l-2.39,.32c.61-.07,1.22-.09,1.83-.08l-9-9c-.37,3.59,.17,7.48,1.5,10.84,.78,1.97,1.6,3.92,2.83,5.66s2.71,3.29,4.07,4.96l-1.41-1.82c.31,.42,.57,.84,.79,1.32l-.91-2.15c.24,.62,.38,1.23,.48,1.89l-.32-2.39c.28,2.58,.09,5.23,.85,7.74,.96,3.14,2.78,5.28,4.77,7.81l-1.41-1.82c.44,.58,.83,1.16,1.15,1.81l-.91-2.15c.2,.5,.33,.99,.41,1.52l-.32-2.39c.13,1.53-.07,3.05,.1,4.58,.33,2.91,.95,5.24,2.33,7.86,1.88,3.58,4.97,6.36,8.25,8.63,6.43,4.45,14.63,5.77,22.23,6.54,7.16,.73,14.38,1.03,21.57,1.5l10.82,.71c4.11,.27,8.33,.59,12.35-.62s7.85-3.59,10.52-6.85c1.92-2.35,3.16-4.46,4.23-7.31,.82-2.18,.96-4.49,1.25-6.79l-.32,2.39c.09-.56,.2-1.09,.39-1.62l-.91,2.15c.16-.36,.33-.67,.55-.99l-1.41,1.82c.54-.68,1.17-1.21,1.86-1.74l-1.82,1.41c2.79-2.13,4.97-4.02,6.9-7,1.39-2.16,2.36-4.68,3.03-7.16,1.24-4.6,1.46-9.44,2.08-14.15l-.32,2.39c.37-2.76,.89-5.51,1.95-8.1l-.91,2.15c.54-1.25,1.19-2.42,2-3.51l-1.41,1.82c.13-.17,.26-.33,.4-.49l-10.91,1.41c.3,.16,.56,.33,.84,.54l-1.82-1.41c.34,.29,.63,.59,.91,.92l-1.41-1.82c.62,.82,1.07,1.72,1.48,2.66l-.91-2.15c1.13,2.7,2.03,5.52,3.77,7.91,2.1,2.88,4.33,5.08,7.31,7.09,4.57,3.08,10.74,4.76,16.23,4.2,3.68-.37,7.2-1.21,10.4-3.16,3.81-2.32,6.4-5.68,7.86-9.87,2.44-7.02-.28-14.83-4.79-20.31-2.26-2.75-5.28-4.95-8.32-6.75-2.51-1.49-5.35-2.5-7.76-4.12l1.82,1.41c-.29-.22-.52-.44-.77-.71l1.41,1.82c-.14-.18-.25-.37-.33-.59l.91,2.15-.1-.33,.32,2.39c-.05-.28-.05-.56,0-.84l-.32,2.39c.43-1.84,1.29-3.48,1.59-5.37,.52-3.27,.55-6.12-.13-9.39-1.05-5.02-4.57-9.88-9.16-12.23-5.27-2.7-11.28-3.08-16.61-.32-2,1.03-3.75,2.61-5.16,4.34-1.03,1.26-1.99,2.57-3.27,3.6l1.82-1.41c-.37,.27-.75,.51-1.16,.73l13.22,10.16c2.67-6.55,1.2-14.31-2.03-20.37s-8.44-10.27-14.08-13.42c-2.92-1.63-6.02-2.92-9.11-4.18-2.79-1.14-5.64-2.1-8.63-2.57-4.19-.66-8.08-.7-12.24,.25-3.01,.69-5.98,1.98-8.65,3.53-6.23,3.63-11.01,8.92-15.3,14.6l12.31-3.23c-4.09-2.33-8.42-2.57-12.95-1.8-2.67,.46-5.17,1.55-7.67,2.57-6.14,2.51-12.45,4.79-18.42,7.67-6.43,3.1-11.59,8.04-14.13,14.77s0,14.25,3.58,20.36c3.3,5.64,6.34,11.38,8.89,17.4l-.91-2.15c1.47,3.52,2.8,7.09,3.97,10.72,1.24,3.85,2.25,7.84,4.28,11.37,4.55,7.92,13.48,11.19,21.99,12.84,8.04,1.56,16.24,1.92,24.36,.94,4.48-.54,8.92-1.25,13.3-2.35s9.5-2.32,12.87-5.73c2.11-2.14,3.51-4.91,4.3-7.78,.49-1.79,.69-3.64,1.05-5.45,.82-4.13,2.07-8.15,3.7-12.04l-.91,2.15c1.4-3.28,2.98-6.64,5.14-9.5l-1.41,1.82c.58-.72,1.19-1.37,1.92-1.95l-1.82,1.41c.54-.39,1.08-.71,1.68-1l-2.15,.91c.86-.36,1.71-.58,2.63-.72l-2.39,.32c1.2-.14,2.38-.11,3.58,.05l-2.39-.32c1.52,.24,2.97,.69,4.39,1.27l-2.15-.91c1.99,.84,3.88,1.88,5.79,2.87,.92,.48,1.85,.94,2.8,1.36,2.39,1.05,4.21,1.65,6.82,1.94,3.66,.41,7.58-1.13,10.14-3.76,3.7-3.82,4.27-9.36,1.78-13.99-1.1-2.04-2.6-3.93-3.9-5.84l-4.05-5.99c-1.31-1.94-2.59-3.91-3.94-5.82-.89-1.26-1.79-2.58-2.93-3.63-1.71-1.57-3.4-2.5-5.54-3.32-5.44-2.09-10.76,.44-16.13,1.18l2.39-.32c-.63,.07-1.25,.1-1.89,.09l6.36,2.64c-1.18-.91-2.18-1.97-3.1-3.15l1.41,1.82c-1.28-1.7-2.34-3.54-3.42-5.37-1.45-2.46-3.03-4.78-4.87-6.98-3.72-4.43-9.02-7.38-14.41-9.27-10.9-3.81-22.98-1.74-33.71,1.58-5.3,1.64-10.61,3.61-15.45,6.34-5.26,2.96-9.68,6.88-13.29,11.69s-5.4,10.08-5.98,15.81c-.33,3.23,.17,6.52,.74,9.69,.45,2.52,1.02,5.05,1.73,7.51,1.64,5.71,4.34,11.32,8.74,15.42,4.13,3.84,9.33,6.6,14.82,7.88,11.98,2.81,23.9-.54,34.9-5.24,9.08-3.88,17.79-9.88,22.85-18.57,3.27-5.62,5.33-12.98,3.05-19.35-1.17-3.25-2.89-6.19-5.39-8.6-2.68-2.58-5.69-4.24-9.1-5.62-2.3-.93-4.7-1.5-7.15-1.89-3.29-.52-6.61-.94-9.94-1.07-5.96-.24-12.11,.41-17.82,2.12-11.42,3.42-22.12,10.68-25.57,22.64-3.17,10.99,.34,23.27,8.5,31.18s19.05,11.4,29.81,10.14c6.2-.73,11.96-2.44,17.48-5.41s10.8-7.32,13.05-13.61c1.28-3.58,.81-7.82-.28-11.39-.83-2.68-1.94-5.32-3.23-7.8-2.58-4.95-6.31-9.09-10.82-12.34s-10.78-4.97-16.49-4.83c-6.17,.16-11.96,2.05-17.45,4.74-2.15,1.05-4.22,2.28-6.2,3.61-2.31,1.56-4.69,3.25-6.57,5.34-2.23,2.49-4.16,5.42-4.8,8.76-.75,3.97-.25,7.96,1.81,11.49,3.01,5.15,8.75,8.59,14.47,9.85s11.76,1.22,17.54-.21,10.83-4.2,15.17-7.97c2.57-2.24,4.77-5.37,5.61-8.71,1.15-4.52,.1-9.06-2.72-12.71-4.06-5.25-10.46-7.58-16.89-8.09-5.18-.41-10.77,1.06-15.24,3.66-2.23,1.3-4.39,2.98-6.08,4.94-3.13,3.63-3.65,8.69-2.53,13.23,1.87,7.54,8.8,12.22,16.3,12.57,5.59,.26,11.15-2.11,15.98-4.64,2.62-1.37,4.68-4.78,4.46-7.77-.33-4.47-2.02-8.92-5.57-11.84-4.1-3.37-9.07-5.02-14.36-3.71-6.3,1.56-10.59,7.91-9.06,14.32,.72,3.04,2.75,5.61,5.36,7.26,1.55,.98,3.47,1.46,5.28,1.53,2.17,.09,3.65-.55,5.59-1.4s3.6-3.44,4.14-5.38c.59-2.15,.33-5.02-.91-6.94s-3.08-3.61-5.38-4.14l-2.39-.32c-1.62,0-3.14,.41-4.54,1.23l-.26,.11,2.15-.91-.26,.06,2.39-.32c-.17,.03-.35,.02-.52,0l2.39,.32c-.18-.03-.34-.09-.5-.17l2.15,.91c-.17-.08-.32-.18-.46-.3l1.82,1.41c-.15-.12-.28-.26-.4-.41l1.41,1.82c-.18-.25-.31-.47-.44-.75l.91,2.15c-.07-.18-.13-.37-.16-.56l.32,2.39c-.03-.19-.04-.38-.03-.57l-.32,2.39c.02-.19,.06-.38,.13-.56l-.91,2.15c.14-.31,.28-.55,.48-.82l-1.41,1.82c.13-.16,.28-.31,.45-.45l-1.82,1.41c.35-.27,.71-.47,1.11-.64l-2.15,.91c.43-.15,.84-.25,1.29-.32l-2.39,.32c.45-.04,.88-.05,1.33,0l-2.39-.32c.7,.1,1.34,.28,1.99,.54l-2.15-.91c.53,.25,1.01,.53,1.49,.87l-1.82-1.41c.55,.43,1.04,.91,1.48,1.45l-1.41-1.82c.42,.56,.77,1.14,1.05,1.78l-.91-2.15c.21,.54,.37,1.08,.47,1.66l-.32-2.39c.03,.23,.06,.46,.07,.69l4.46-7.77c-1.15,.6-2.31,1.16-3.5,1.67l2.15-.91c-1.8,.74-3.64,1.33-5.57,1.62l2.39-.32c-1.09,.14-2.17,.17-3.26,.04l2.39,.32c-.82-.13-1.59-.33-2.36-.65l2.15,.91c-.55-.26-1.06-.55-1.55-.91l1.82,1.41c-.57-.44-1.05-.93-1.5-1.49l1.41,1.82c-.34-.48-.63-.97-.88-1.51l.91,2.15c-.32-.77-.53-1.53-.64-2.36l.32,2.39c-.05-.59-.05-1.16,0-1.75l-.32,2.39c.08-.59,.21-1.14,.4-1.7l-2.31,3.97c.77-.88,1.6-1.66,2.52-2.38l-1.82,1.41c1.22-.9,2.52-1.64,3.91-2.23l-2.15,.91c1.52-.61,3.08-1.02,4.7-1.25l-2.39,.32c1.62-.2,3.23-.2,4.85,0l-2.39-.32c1.5,.22,2.94,.62,4.33,1.2l-2.15-.91c1.02,.45,1.97,.99,2.86,1.66l-1.82-1.41c.59,.48,1.12,.99,1.6,1.57l-1.41-1.82c.37,.5,.67,1,.91,1.57l-.91-2.15c.17,.47,.28,.92,.35,1.41l-.32-2.39c.02,.39,.02,.75-.01,1.14l.32-2.39c-.1,.63-.27,1.21-.52,1.8l.91-2.15c-.29,.59-.62,1.13-1,1.66l1.41-1.82c-.83,1.05-1.78,1.94-2.83,2.76l1.82-1.41c-1.9,1.44-3.96,2.62-6.15,3.55l2.15-.91c-2.33,.95-4.75,1.6-7.24,1.96l2.39-.32c-2.5,.32-5,.32-7.5,0l2.39,.32c-1.86-.27-3.66-.69-5.4-1.41l2.15,.91c-1.2-.53-2.32-1.16-3.37-1.95l1.82,1.41c-.71-.57-1.35-1.2-1.92-1.92l1.41,1.82c-.39-.54-.72-1.09-.99-1.7l.91,2.15c-.25-.62-.41-1.24-.5-1.9l.32,2.39c-.05-.6-.04-1.18,.04-1.77l-.32,2.39c.11-.6,.26-1.16,.48-1.72l-.91,2.15c.35-.79,.77-1.5,1.28-2.2l-1.41,1.82c1.03-1.31,2.24-2.42,3.56-3.43l-1.82,1.41c3.21-2.42,6.73-4.46,10.43-6.03l-2.15,.91c2.57-1.06,5.22-1.85,7.97-2.24l-2.39,.32c2.01-.26,4.02-.29,6.03-.03l-2.39-.32c1.61,.24,3.16,.65,4.67,1.26l-2.15-.91c1.6,.68,3.07,1.55,4.46,2.6l-1.82-1.41c1.56,1.23,2.94,2.65,4.17,4.22l-1.41-1.82c1.61,2.11,2.91,4.41,3.96,6.85l-.91-2.15c.79,1.9,1.49,3.86,1.82,5.9l-.32-2.39c.09,.75,.11,1.48,.06,2.24l.32-2.39c-.11,.78-.3,1.5-.6,2.23l.91-2.15c-.32,.68-.7,1.31-1.14,1.91l1.41-1.82c-.88,1.11-1.9,2.06-3.02,2.92l1.82-1.41c-2.47,1.84-5.19,3.34-8.02,4.54l2.15-.91c-2.91,1.19-5.92,2.03-9.04,2.47l2.39-.32c-2.79,.35-5.6,.38-8.39,0l2.39,.32c-2.49-.37-4.91-1.04-7.23-2.01l2.15,.91c-2.19-.95-4.24-2.15-6.13-3.6l1.82,1.41c-1.67-1.32-3.16-2.8-4.47-4.48l1.41,1.82c-1.15-1.51-2.1-3.13-2.86-4.87l.91,2.15c-.79-1.89-1.31-3.85-1.6-5.88l.32,2.39c-.25-2.03-.25-4.05,0-6.08l-.32,2.39c.26-1.76,.71-3.45,1.37-5.1l-.91,2.15c.65-1.53,1.46-2.95,2.46-4.27l-1.41,1.82c1.16-1.48,2.49-2.78,3.97-3.96l-1.82,1.41c2.4-1.85,5.05-3.28,7.83-4.46l-2.15,.91c3.55-1.46,7.24-2.46,11.05-2.97l-2.39,.32c4.97-.62,9.96-.45,14.91,.2l-2.39-.32c2.89,.4,5.73,.97,8.44,2.08l-2.15-.91c1.37,.59,2.65,1.3,3.84,2.19l-1.82-1.41c1,.78,1.88,1.65,2.67,2.65l-1.41-1.82c.6,.81,1.1,1.65,1.5,2.57l-.91-2.15c.34,.86,.57,1.71,.71,2.62l-.32-2.39c.11,1.01,.11,1.98,0,2.99l.32-2.39c-.22,1.59-.66,3.09-1.27,4.57l.91-2.15c-.86,1.98-1.96,3.82-3.26,5.54l1.41-1.82c-1.7,2.19-3.69,4.1-5.87,5.81l1.82-1.41c-3.68,2.82-7.78,5.01-12.05,6.82l2.15-.91c-5.1,2.13-10.4,3.88-15.89,4.66l2.39-.32c-3.07,.4-6.15,.48-9.22,.09l2.39,.32c-2.45-.35-4.82-.99-7.1-1.94l2.15,.91c-1.77-.78-3.43-1.72-4.97-2.89l1.82,1.41c-1.31-1.03-2.49-2.18-3.53-3.49l1.41,1.82c-1.19-1.55-2.12-3.23-2.9-5.02l.91,2.15c-1.78-4.27-2.85-8.99-3.48-13.56l.32,2.39c-.24-1.94-.31-3.86-.08-5.8l-.32,2.39c.27-1.92,.79-3.76,1.55-5.55l-.91,2.15c.84-1.91,1.91-3.68,3.16-5.34l-1.41,1.82c1.54-1.97,3.3-3.72,5.26-5.28l-1.82,1.41c3.06-2.37,6.46-4.2,10.01-5.72l-2.15,.91c6.51-2.72,13.5-4.82,20.5-5.79l-2.39,.32c3.45-.44,6.93-.56,10.39-.13l-2.39-.32c2.75,.37,5.42,1.07,7.98,2.15l-2.15-.91c1.92,.84,3.71,1.87,5.38,3.14l-1.82-1.41c1.43,1.13,2.7,2.4,3.82,3.83l-1.41-1.82c3.11,4.13,5.16,8.85,8.63,12.75,.92,1.03,1.98,1.87,3.07,2.71,3.11,2.4,6.37,2.02,9.92,1.49,2.37-.35,4.63-1.16,6.99-1.53l-2.39,.32c.84-.11,1.65-.15,2.49-.07l-2.39-.32c.58,.08,1.12,.22,1.67,.44l-2.15-.91c.46,.21,.86,.46,1.27,.76l-1.82-1.41c.51,.43,.94,.9,1.36,1.42l-1.41-1.82c2.2,2.95,4.16,6.1,6.22,9.15l3.07,4.55c1.06,1.57,2.28,3.11,3.15,4.79l-.91-2.15c.12,.25,.2,.51,.25,.78l-.32-2.39c.03,.22,.03,.44,0,.66l.32-2.39c-.03,.22-.09,.42-.18,.62l.91-2.15c-.09,.2-.2,.39-.33,.57l1.41-1.82c-.23,.28-.44,.49-.72,.72l1.82-1.41c-.3,.2-.57,.35-.9,.5l2.15-.91c-.21,.08-.43,.14-.66,.18l2.39-.32c-.58,.07-1.12,.06-1.7-.01l2.39,.32c-.72-.14-1.39-.36-2.07-.63l2.15,.91c-4.27-1.83-8.15-4.39-12.61-5.85-5.31-1.73-11.23-1.46-16.22,1.1-4.44,2.28-7.27,6.73-9.5,11.02s-3.96,8.52-5.3,12.99c-.67,2.23-1.21,4.5-1.62,6.79-.35,1.94-.6,3.9-1.31,5.75l.91-2.15c-.28,.67-.62,1.28-1.05,1.87l1.41-1.82c-.31,.38-.64,.71-1.01,1.02l1.82-1.41c-.46,.34-.94,.61-1.46,.86l2.15-.91c-2.55,1.07-5.34,1.71-8.02,2.35s-5.58,1.18-8.41,1.58l2.39-.32c-6.55,.88-13.17,1.01-19.73,.15l2.39,.32c-4.39-.61-8.82-1.58-12.94-3.26l2.15,.91c-1.5-.64-2.92-1.41-4.22-2.41l1.82,1.41c-.73-.6-1.38-1.25-1.98-1.99l1.41,1.82c-.89-1.17-1.56-2.43-2.14-3.78l.91,2.15c-1.31-3.22-2.14-6.62-3.27-9.9-1.43-4.12-3.08-8.16-4.84-12.15-1.48-3.35-3.09-6.63-4.85-9.85s-3.86-6.29-5.34-9.65l.91,2.15c-.54-1.31-.95-2.63-1.15-4.03l.32,2.39c-.1-.95-.09-1.87,.03-2.82l-.32,2.39c.15-.88,.38-1.71,.71-2.55l-.91,2.15c.51-1.18,1.16-2.26,1.94-3.29l-1.41,1.82c.91-1.12,1.93-2.11,3.07-3l-1.82,1.41c2.37-1.78,5.03-3.05,7.74-4.2l-2.15,.91c3.71-1.55,7.44-3.05,11.16-4.57,3.35-1.37,6.73-3.02,10.34-3.56l-2.39,.32c.92-.11,1.81-.14,2.72-.04l-2.39-.32c.64,.1,1.24,.24,1.85,.47l-2.15-.91c.37,.16,.7,.33,1.05,.52,1.96,1.11,4.75,1.62,6.94,.91l2.15-.91c1.35-.8,2.43-1.88,3.23-3.23,.16-.21,.31-.41,.47-.62l-1.41,1.82c2.42-3.13,5.12-6.03,8.23-8.47l-1.82,1.41c1.94-1.49,4.02-2.77,6.27-3.74l-2.15,.91c1.77-.73,3.58-1.24,5.47-1.5l-2.39,.32c1.72-.2,3.41-.18,5.13,.02l-2.39-.32c3.51,.49,6.84,1.69,10.1,3.06l-2.15-.91c3.66,1.55,7.22,3.34,10.4,5.75l-1.82-1.41c1.71,1.33,3.27,2.82,4.61,4.52l-1.41-1.82c1.02,1.35,1.86,2.79,2.53,4.34l-.91-2.15c.59,1.43,1.01,2.9,1.25,4.43l-.32-2.39c.18,1.39,.2,2.76,.03,4.15l.32-2.39c-.17,1.13-.47,2.22-.9,3.28l-.32,2.39,.32,2.39c.52,1.89,1.69,3.49,3.23,4.68,2.94,2.27,6.73,2.41,10,.7,1.99-1.04,3.73-2.62,5.14-4.36,1.04-1.27,2.01-2.58,3.3-3.6l-1.82,1.41c.46-.33,.93-.61,1.44-.84l-2.15,.91c.62-.25,1.23-.42,1.89-.52l-2.39,.32c.78-.09,1.53-.08,2.31,.01l-2.39-.32c.78,.12,1.52,.33,2.26,.61l-2.15-.91c.84,.36,1.61,.8,2.33,1.36l-1.82-1.41c.53,.43,1,.9,1.43,1.42l-1.41-1.82c.54,.71,.97,1.45,1.34,2.26l-.91-2.15c.39,.95,.66,1.92,.82,2.93l-.32-2.39c.17,1.29,.16,2.56,0,3.86l.32-2.39c-.41,2.69-1.79,5.01-1.91,7.77-.19,4.54,2.44,8.43,6.27,10.63,3.4,1.96,7,3.38,10.17,5.75l-1.82-1.41c1.37,1.06,2.62,2.24,3.69,3.6l-1.41-1.82c.71,.96,1.3,1.99,1.77,3.09l-.91-2.15c.44,1.11,.75,2.25,.92,3.44l-.32-2.39c.1,.93,.12,1.84,.02,2.77l.32-2.39c-.12,.91-.35,1.77-.7,2.61l.91-2.15c-.29,.63-.63,1.2-1.04,1.75l1.41-1.82c-.48,.59-1.02,1.1-1.62,1.57l1.82-1.41c-.75,.54-1.54,.98-2.39,1.36l2.15-.91c-1.28,.53-2.58,.89-3.95,1.09l2.39-.32c-1.44,.18-2.86,.17-4.3,0l2.39,.32c-1.66-.23-3.26-.68-4.8-1.33l2.15,.91c-1.33-.59-2.57-1.31-3.73-2.18l1.82,1.41c-1.14-.89-2.16-1.88-3.06-3.01l1.41,1.82c-.81-1.07-1.48-2.21-2.02-3.44l.91,2.15c-.86-2.05-1.56-4.19-2.62-6.14-1.31-2.43-3.36-4.61-5.79-5.95-1.79-.98-3.71-1.34-5.74-1.07-1.81,.24-3.96,1.01-5.17,2.48-3.04,3.69-5.1,7.82-6.08,12.52-.86,4.12-1.15,8.34-1.69,12.51l.32-2.39c-.37,2.71-.86,5.41-1.92,7.94l.91-2.15c-.48,1.11-1.07,2.15-1.79,3.12l1.41-1.82c-.73,.93-1.55,1.73-2.48,2.46l1.82-1.41c-2.23,1.71-4.42,3.23-5.88,5.71-1.6,2.73-1.77,5.49-2.17,8.55l.32-2.39c-.17,1.05-.45,2.05-.85,3.04l.91-2.15c-.48,1.08-1.07,2.08-1.79,3.02l1.41-1.82c-.74,.92-1.57,1.74-2.5,2.46l1.82-1.41c-.85,.63-1.75,1.16-2.72,1.59l2.15-.91c-1.06,.44-2.13,.72-3.26,.9l2.39-.32c-3.54,.43-7.18-.06-10.72-.29l-11.07-.73c-7.1-.47-14.27-.69-21.33-1.62l2.39,.32c-3.74-.52-7.42-1.34-10.92-2.78l2.15,.91c-1.71-.73-3.31-1.64-4.8-2.76l1.82,1.41c-1.16-.9-2.21-1.91-3.12-3.06l1.41,1.82c-.64-.86-1.17-1.76-1.6-2.74l.91,2.15c-.3-.77-.52-1.55-.65-2.37l.32,2.39c-.34-2.69,.23-5.31-.64-7.99-1.01-3.11-2.82-5.18-4.79-7.72l1.41,1.82c-.44-.59-.82-1.18-1.12-1.85l.91,2.15c-.24-.63-.38-1.25-.47-1.91l.32,2.39c-.29-2.7-.08-5.5-.98-8.1-.82-2.35-1.8-3.88-3.42-5.77-.68-.79-1.41-1.53-2.06-2.35l1.41,1.82c-.89-1.19-1.61-2.45-2.2-3.8l.91,2.15c-.61-1.5-1.02-3.03-1.23-4.63l.32,2.39c-.15-1.34-.16-2.66-.02-4,.22-2.06-1.14-4.99-2.64-6.36-1.79-1.64-3.9-2.57-6.36-2.64-4.28-.12-8.3,1.33-12.05,3.27-2.65,1.38-5.13,3.06-7.86,4.27l2.15-.91c-1.06,.45-2.14,.85-3.29,1.01l2.39-.32c-.73,.07-1.43,.07-2.15-.03l2.39,.32c-.59-.1-1.15-.25-1.71-.48l2.15,.91c-.34-.16-.65-.34-.95-.56l1.82,1.41c-.21-.17-.38-.35-.56-.55l1.41,1.82c-.16-.22-.28-.42-.4-.66l.91,2.15c-.1-.26-.17-.5-.22-.78l.32,2.39c-.03-.23-.04-.46-.02-.69l-.32,2.39c.08-.55,.22-1.04,.42-1.55l-.91,2.15c1.09-2.54,2.29-5.08,3.97-7.28l-1.41,1.82c.68-.84,1.42-1.61,2.28-2.27l-1.82,1.41c.64-.46,1.3-.84,2.01-1.17l-2.15,.91c.72-.3,1.43-.52,2.2-.65l-2.39,.32c.76-.1,1.48-.11,2.24,0l-2.39-.32c.5,.1,.97,.23,1.45,.42l2.39,.32,2.39-.32c1.89-.52,3.49-1.69,4.68-3.23,1-1.29,1.55-2.64,1.77-4.26,.29-2.13-.17-3.77-1.07-5.74l-.16-.35,.91,2.15c-.49-1.17-.81-2.36-.98-3.61l.32,2.39c-.14-1.25-.13-2.49,.01-3.74l-.32,2.39c.24-1.79,.73-3.5,1.43-5.17l-.91,2.15c.79-1.79,1.77-3.45,2.96-5l-1.41,1.82c.98-1.24,2.05-2.37,3.28-3.36l-1.82,1.41c.83-.64,1.7-1.17,2.65-1.61l-2.15,.91c.72-.3,1.45-.51,2.22-.65l-2.39,.32c.66-.09,1.29-.09,1.95-.02l-2.39-.32c.66,.1,1.28,.26,1.9,.5l-2.15-.91c.6,.26,1.14,.57,1.66,.97l-1.82-1.41c.33,.27,.62,.56,.89,.89l-1.41-1.82c.26,.34,.47,.68,.66,1.06l-.91-2.15c.13,.3,.22,.59,.31,.9,1.16,4.34,5.52,7.03,9.87,6.45s8.15-4.36,7.8-8.84c-.09-1.19-.06-2.37,.09-3.56l-.32,2.39c.21-1.4,.59-2.74,1.11-4.05l-.91,2.15c.75-1.77,1.73-3.39,2.9-4.91l-1.41,1.82c1.39-1.74,2.97-3.28,4.72-4.65l-1.82,1.41c2.17-1.66,4.53-3.03,7.05-4.09l-2.15,.91c2.48-1.01,5.04-1.77,7.69-2.12l-2.39,.32c1.79-.21,3.55-.22,5.34,.02l-2.39-.32c1.36,.21,2.66,.57,3.94,1.1l-2.15-.91c1.12,.49,2.17,1.09,3.15,1.82l-1.82-1.41c.86,.67,1.63,1.41,2.32,2.26l-1.41-1.82c.59,.77,1.08,1.58,1.48,2.46,.88,1.93,3.42,3.6,5.38,4.14,2.15,.59,5.02,.33,6.94-.91s3.61-3.08,4.14-5.38c.57-2.49,.15-4.62-.91-6.94h0Z"/><path class="f" d="M61.82,118.67c1.31,1.61,3.24,2.44,5.14,3.13,2.03,.73,4.11,1.33,6.21,1.83,4.16,.99,8.42,1.59,12.68,1.94s8.35,.44,12.53,.4,8.8-.3,12.88-1.9c1.51-.59,2.56-2.01,2.1-3.69-.43-1.55-2.13-2.55-3.69-2.1-7.53,2.18-15.34,2.63-23.14,2.79-3.8,.08-7.65,.33-11.34-.75s-7.16-2.73-10.64-4.26c-1.48-.65-3.22-.43-4.1,1.08-.74,1.27-.42,3.45,1.08,4.1,3.94,1.73,7.93,3.65,12.07,4.86s8.28,1.05,12.46,.97c8.47-.16,17.03-.65,25.21-3.01l-1.6-5.79c-3.56,1.4-7.27,1.65-11.06,1.69s-7.89-.03-11.83-.33-7.45-.77-11.12-1.59c-1.95-.44-3.89-.96-5.79-1.59-1.44-.47-2.87-.87-3.81-2.03-1.02-1.26-3.18-1.06-4.24,0-1.25,1.25-1.02,2.98,0,4.24h0Z"/><path class="f" d="M137.31,59.19c3.86,0,3.87-6,0-6s-3.87,6,0,6h0Z"/></g><g id="b"><path class="h" d="M121.26,88.59l.74-.12c.73-.12,1.16-.98,1.07-1.65-.1-.76-.72-1.25-1.47-1.3-.98-.06-1.95-.14-2.93-.19-1.04-.06-2.13,.13-2.88,.91-.87,.9-1.03,2.41-.13,3.35,.72,.76,1.8,.89,2.79,.97,1.84,.15,3.8-.23,5.45-1.07,.78-.4,1.01-1.29,.79-2.09-.16-.59-.57-1.03-1.05-1.38-.74-.54-1.7-.66-2.58-.72-2.02-.14-4.13,.42-5.83,1.52-.87,.56-1.07,2.08,0,2.59,2.6,1.24,5.69,1.18,8.18-.33,.67-.41,.98-1.36,.54-2.05s-1.33-.97-2.05-.54c-.23,.14-.47,.27-.71,.38-.15,.07-.14,.06,.04-.01-.07,.03-.14,.06-.22,.08-.11,.04-.22,.08-.33,.11-.26,.08-.52,.14-.79,.19-.08,.01-.15,.03-.23,.04,.19-.02,.23-.03,.11-.02-.13,0-.27,.02-.4,.03-.27,.01-.54,.01-.81,0-.02,0-.34-.02-.35-.03,.21,.03,.23,.03,.05,0-.08-.01-.15-.03-.23-.04-.26-.05-.53-.12-.78-.2-.11-.04-.22-.08-.33-.12-.16-.06-.14-.06,.04,.02-.07-.03-.14-.06-.21-.1v2.59c.27-.18,.55-.34,.84-.48,.06-.03,.53-.27,.19-.1,.14-.07,.31-.12,.45-.17,.31-.1,.62-.19,.93-.26,.15-.03,.32-.08,.48-.09-.4,0,.12,0,.2-.02,.32-.03,.65-.03,.97-.02,.16,0,.32,.02,.48,.03,.17,.02,.16,.02-.04,0,.08,.01,.16,.02,.24,.04,.13,.02,.25,.06,.38,.1,.15,.06,.13,.04-.08-.04,.06,.03,.12,.06,.17,.09,.13,.09,.11,.07-.07-.07,.11,.11,.09,.08-.06-.11,.08,.14,.07,.09-.04-.13-.04-.15-.03-.3,.01-.45l.69-.9c-.11,.06-.23,.11-.35,.16,.3-.15-.07,.03-.11,.04-.24,.09-.48,.17-.72,.24s-.49,.13-.74,.18c-.1,.02-.21,.03-.31,.06-.11,.02-.08,.01,.08,0-.06,0-.13,.02-.19,.02-.48,.05-.97,.06-1.46,.04-.13,0-.25-.02-.38-.03-.06,0-.13-.01-.19-.02-.11-.01-.08,0,.08,.01-.2,.03-.43-.17-.61-.14l.18,.07c-.14-.08-.11-.06,.07,.07,.06,.07,.22,.5,.16,.26l.04,.22c-.04,.23-.05,.29-.02,.17,.04-.12-.17,.3,0,.02,.06-.09,.03-.05-.08,.11,.09-.09,.09-.09,0,0-.1,.08-.1,.08,0,.01l-.14,.06c.06-.05,.26-.09,.35-.09-.37,0,0,.02,.09,.02,1.11-.01,2.25,.13,3.36,.2l-.4-2.95-.74,.12c-.78,.13-1.28,1.13-1.05,1.85,.27,.84,1.01,1.18,1.85,1.05h0Z"/><path class="h" d="M60.35,86.68c-2.16-.8-5.54-1.1-6.98,1.14-.81,1.26-.26,2.93,1.03,3.62,1.16,.62,2.56,.53,3.82,.34,1.34-.2,2.66-.75,3.76-1.53,.4-.28,.65-.61,.72-1.1,.06-.43-.05-.97-.41-1.26-1.1-.9-2.34-1.3-3.74-1.44-.55-.05-1.1-.06-1.64-.04-.68,.02-1.38,.03-2.05,.18-1.68,.39-2.9,2.18-2.06,3.83,.67,1.3,2.33,1.54,3.64,1.48,1.55-.07,3.08-.52,4.4-1.35,.54-.34,.9-1.05,.69-1.69-.22-.68-.76-1.02-1.45-1.1l-2.3-.26c-.78-.09-1.53,.75-1.5,1.5,.04,.89,.66,1.4,1.5,1.5l2.3,.26-.76-2.8c-.28,.17-.57,.33-.86,.47-.36,.18,.28-.1-.09,.04-.15,.06-.31,.11-.46,.16-.27,.08-.55,.15-.83,.21-.08,.02-.16,.03-.24,.04,.2-.02,.21-.03,.03,0-.12,0-.24,.02-.37,.03-.33,.02-.65,0-.98-.01s.34,.09,.02,0c-.03,0-.36-.11-.37-.1,.21,.09,.25,.11,.11,.03-.13-.09-.1-.06,.09,.08l-.06-.06c.1,.1,.17,.22,.2,.36-.04-.16-.04-.13,0,.11-.04,.24-.05,.28,0,.11-.1,.2-.1,.23-.03,.09-.13,.15-.16,.19-.08,.1,.29-.26-.19,.13,.05-.05,.15-.08,.14-.08-.02,0,.08-.03,.16-.05,.23-.06,.36-.11-.29,0,.09-.02,.16-.01,.33-.02,.49-.03,.55-.03,1.09-.04,1.64-.03,.27,0,.59,0,.84,.06-.38-.1-.06,0,.04,.01,.14,.03,.29,.06,.43,.1s.28,.09,.42,.13c.29,.09-.25-.14,.04,.01,.13,.07,.26,.13,.38,.21,.07,.04,.45,.34,.14,.09l.3-2.36c-.23,.16-.47,.32-.72,.46-.14,.08-.28,.15-.43,.22-.12,.06-.32,.16-.09,.05-.5,.24-1.09,.38-1.63,.47-.08,.01-.16,.03-.24,.04,.2-.03,.21-.03,.04-.01-.12,0-.24,.02-.36,.03-.28,.01-.55,0-.82,0-.16-.02-.13,0,.11,.02-.06,0-.13-.02-.19-.03-.09-.02-.19-.05-.28-.07-.15-.06-.12-.04,.1,.05-.06-.03-.11-.06-.16-.09-.13-.09-.1-.06,.09,.07-.08-.09-.08-.08,0,.02,.08,.11,.08,.11,.02,0,.08,.22,.1,.26,.05,.11,.02,.26,.03,.31,.02,.15-.05,.25-.06,.32-.03,.2,.08-.34-.15,.28-.01,.03s-.22,.29,0,.01c.03-.03,.06-.06,.1-.09-.19,.14-.21,.16-.08,.07,.1-.05,.2-.11,.29-.16,.1-.05,.06-.03-.14,.06,.06-.02,.12-.04,.18-.06,.11-.03,.22-.06,.33-.08,.37-.08-.27-.01,.02,0,.15,0,.3-.01,.45-.01,.3,0,.6,.03,.9,.05,.11,.01,.09,0-.08-.01,.09,.01,.17,.03,.26,.04,.15,.03,.3,.06,.44,.1,.31,.08,.62,.18,.93,.29,.74,.27,1.68-.3,1.85-1.05,.19-.85-.26-1.55-1.05-1.85h0Z"/><path class="h" d="M32.51,68.42c-4.02-1.58-7.62,1.6-9.61,4.77-1.07,1.71-1.87,3.95-.38,5.68s3.75,.89,5.3-.36,2.91-2.66,4.12-4.22c1.03-1.33,2.89-3.35,2.12-5.17-.83-1.97-3.57-1.27-5.08-.65-1.7,.69-3.16,1.84-4.41,3.17-1.18,1.26-2.5,2.77-3.11,4.41-.72,1.93,.32,3.98,2.53,3.93,4.07-.09,6.81-3.98,8.16-7.37,.34-.87,.81-1.85,.55-2.8-.31-1.12-1.67-1.55-2.7-1.57-2.08-.04-3.94,1.3-5.36,2.7-1.25,1.22-2.64,2.9-3.12,4.62-.55,1.95,.87,3.77,2.79,4.11,2.04,.36,3.86-.96,5.29-2.25s2.62-2.89,3.46-4.62c.79-1.63,1.69-4.14-.55-5.06-1.73-.71-3.49,.47-4.89,1.38-1.66,1.08-3.24,2.31-4.7,3.66-.7,.65-1.37,1.33-2.01,2.04s-1.5,1.54-1.83,2.51c-.74,2.16,1.27,3.52,3.21,3.16,1.7-.32,3.41-1.42,4.78-2.45,1.54-1.15,3.07-2.58,4.07-4.24,.51-.86,.75-1.82,.4-2.78-.38-1.03-1.45-1.61-2.47-1.88-3.83-1.01-7.7,2.13-9.98,4.88-1.11,1.34-3.12,3.73-2.21,5.59s3.21,2.07,4.96,1.79,3.62-1.18,5.2-2.12c1.48-.88,2.89-1.96,4.05-3.24,1.24-1.36,2.25-2.93,2.85-4.68,.32-.93,.29-1.89-.49-2.58s-2.07-.74-3.08-.69c-4.04,.22-7.79,2.75-10.37,5.74-1.26,1.45-2.88,3.36-1.89,5.38,.89,1.79,3.08,2.43,4.94,2.38,3.73-.09,7.61-2.38,9.94-5.22,1.79-2.18,4.73-8.22,.07-9.02-3.96-.68-8.01,1.71-10.83,4.24-1.47,1.32-2.78,2.81-4.05,4.31-.72,.85-1.38,1.69-1.29,2.87,.09,1.07,.91,1.87,1.81,2.36,3.45,1.84,7.71-.2,10.48-2.38,1.42-1.12,2.63-2.49,3.59-4.02,1.04-1.65,2.07-3.83,.85-5.67-1.08-1.63-3.2-2.31-5.08-2.37-1.97-.06-3.96,.61-5.58,1.71-2.9,1.99-6.46,6.04-4.77,9.79,1.92,4.25,7.17,1.77,10-.05,1.59-1.03,3.06-2.28,4.28-3.73,1.1-1.3,2.25-2.78,2.61-4.48,.39-1.89-.4-3.91-2.46-4.31-1.94-.38-3.94,.91-5.53,1.87-3.49,2.11-6.52,4.87-9.49,7.64-.74,.69-1.55,1.4-1.78,2.44-.21,.94,.06,1.88,.69,2.59,1.23,1.4,3.21,1.56,4.93,1.27,3.82-.66,7.36-3.64,9.98-6.35,1.28-1.33,2.92-2.95,2.97-4.92,.05-2.21-2.11-3.22-4-3.38-4.12-.36-7.25,3.01-8.49,6.61-.62,1.81-.64,4.01,.94,5.35,1.49,1.28,3.59,1.34,5.32,.56s3.1-2.35,4.18-3.87,2.32-4.05,1.41-5.84c-1.05-2.06-3.43-.96-4.84-.02-1.66,1.11-3.07,2.53-4.38,4.02s-2.97,3.36-1.59,5.29c1.22,1.7,3.52,1.11,5.09,.34s2.95-2.05,3.89-3.54,1.77-3.85-.24-4.86c-1.73-.87-3.77,.75-5.07,1.74-1.55,1.18-2.86,2.56-4,4.14-.29,.4-.27,1.11,0,1.51,2.07,3.09,6.4-.63,7.96-2.47,1.07-1.26,1.89-2.65,2.49-4.19,.53-1.37,1.09-3.28,.79-4.75-.39-1.91-2.89-1.96-4.46-1.91-1.9,.06-3.73,.56-5.44,1.37-3.11,1.48-5.61,4.12-7.42,7-1.07,1.69-1.94,3.69-1.89,5.73,.04,1.77,.97,3.73,2.86,4.11s2.69-2.51,.8-2.89c-1.36-.27-.39-3.1-.06-3.82,.77-1.72,1.97-3.32,3.29-4.66s2.74-2.41,4.43-3.08c.9-.36,1.88-.63,2.84-.72,.73-.07,2.11-.24,2.74,.21l-.54-.54c-.22-.43-.1,.15-.12,.34-.02,.22-.05,.44-.09,.66-.09,.52-.23,1.04-.39,1.54-.33,1.02-.84,1.97-1.45,2.84-.57,.82-1.29,1.57-2.07,2.19-.4,.32-.84,.6-1.28,.85-.18,.1-.47,.19-.61,.32-.4,.36-.41-.56,.21,.37v1.51c1.3-1.8,2.98-3.27,4.89-4.38-.06,.04,.58-.34,.57-.26l-.68-.77c-.03,.15-.08,.3-.14,.45-.16,.39-.4,.78-.64,1.13-.52,.75-1.21,1.39-1.99,1.87-.37,.23-.76,.43-1.17,.57-.05,.02-.83,.15-.83,.16,.13,.46,.21,.54,.26,.24l.14-.25c.13-.23,.3-.41,.47-.61,.38-.45,.78-.89,1.17-1.33,.73-.79,1.49-1.57,2.32-2.25,.38-.31,1.82-1.53,2.22-1.37l-.66-.39c-.18-.16,.02-.26-.12-.05-.05,.08-.05,.37-.07,.47-.06,.27-.14,.54-.24,.8-.25,.63-.63,1.22-1.03,1.76-.72,.97-1.64,2.04-2.75,2.55-.66,.31-1.77,.43-2.25-.28-.61-.91,.25-2.57,.71-3.4,1.04-1.91,3.33-3.89,5.67-2.97,.39,.15,.42,.16,.24,.57-.23,.54-.67,1-1.05,1.44-.91,1.03-1.89,2-2.93,2.9-1.89,1.62-4.28,3.45-6.85,3.72-.42,.04-.86,.05-1.26-.11-.14-.05-.43-.33-.43-.23,0-.31,1.08-1.07,1.31-1.28,.57-.53,1.14-1.06,1.72-1.58,2.06-1.86,4.19-3.65,6.55-5.11,.57-.35,1.15-.69,1.75-1,.5-.26,1.2-.73,1.78-.69,.7,.04,.18,1.19-.03,1.6-1.05,2.1-3,3.95-4.93,5.24-1.01,.68-2.1,1.27-3.24,1.71-.91,.35-2.27,.99-2.79-.2-.46-1.06,.25-2.26,.84-3.11,.71-1.02,1.61-1.99,2.63-2.72s2.2-1.27,3.45-1.37c.96-.08,2.56,.02,3.21,.88,.57,.76-.64,2.33-1.07,2.96-.66,.99-1.48,1.86-2.38,2.64-1.65,1.41-4.19,2.9-6.45,2.62-.26-.03-.55-.1-.79-.2-.13-.06-.36-.29-.49-.29v.29l.1-.17c.08-.07,.17-.21,.24-.29,.27-.32,.54-.63,.81-.94,.92-1.06,1.86-2.1,2.88-3.06,1.93-1.82,4.26-3.38,6.93-3.79,.55-.08,1.1-.03,1.64-.06,.04,0,.23,.09,.26,.06l.02,.02c.12,.08,.07-.02-.16-.29,0,0-.08,.75-.09,.79-.24,1.12-.72,2.13-1.38,3.07-1.33,1.88-3.42,3.34-5.56,4.13-1.23,.45-2.75,.82-4.03,.34-.23-.09-.71-.33-.74-.55-.05-.32,.74-1.16,.95-1.43,1.64-2.05,3.85-3.92,6.34-4.81,.59-.21,1.21-.39,1.84-.48,.3-.04,.61-.05,.91-.05,0,0,.57,.06,.61,.03,.18-.14,.23,.46-.09-.17l-.2-.76c.02,.54-.45,1.26-.7,1.71-.32,.58-.69,1.13-1.12,1.63-.84,.99-1.81,1.86-2.88,2.59s-2.24,1.37-3.46,1.85c-.7,.28-3.06,1.15-3.51,.13l.2,.76c-.1-.82,1.02-2.09,1.53-2.71,.72-.88,1.55-1.69,2.43-2.4,.8-.65,1.73-1.25,2.72-1.56,.81-.25,2.06-.46,2.67,.3l-.39-.66c.17,.43-.53,1.08-.82,1.42-.49,.58-1.02,1.12-1.59,1.63-1.07,.96-2.3,1.73-3.61,2.34-.16,.07-1.03,.32-1.05,.41-.04,.19,.38,.56,.42,.54,.11-.03,.25-.32,.34-.42,.29-.35,.59-.69,.9-1.02,1.06-1.15,2.19-2.22,3.4-3.2s2.46-1.84,3.78-2.6c.2-.11,.39-.22,.6-.3,.41-.16,.27,.02,.25-.18,0,0-.32-.38-.3-.38,0,0-.16,.47-.19,.54-.14,.37-.32,.72-.5,1.07-.67,1.29-1.53,2.44-2.59,3.43-.54,.51-2.31,2.26-3.14,1.51-.57-.52,1.39-2.68,1.81-3.13,.57-.61,1.2-1.21,1.92-1.65,.29-.18,1.57-.94,1.91-.56l-.44-1.06c.05,.41-.24,.94-.39,1.32-.17,.45-.36,.88-.58,1.31-.45,.89-.99,1.74-1.69,2.45-.58,.59-1.27,1.1-2.05,1.4-.09,.03-1.2,.29-1.2,.29,0,.02,.35,.33,.36,.33,.04-.01,.07-.29,.09-.34,.63-1.52,2.08-3,3.28-4.09,.66-.6,1.39-1.13,2.21-1.51,.36-.17,.73-.29,1.11-.39,.17-.04,.34-.09,.51-.11,.16-.02,.58,.06,.44-.05l-.54-.54c-.16-.25,.12-.43-.11-.17-.14,.17-.26,.43-.38,.61-.25,.38-.5,.76-.77,1.13-.55,.76-1.15,1.47-1.79,2.15-.69,.74-1.43,1.43-2.2,2.08-.31,.26-.63,.54-1,.72-.33,.16-.24,.14-.32-.01-.31-.63,.45-1.6,.76-2.1,.48-.77,1.01-1.5,1.66-2.14,1.23-1.22,2.88-1.91,4.56-1.25,.75,.3,1.65-.32,1.85-1.05,.23-.85-.29-1.55-1.05-1.85h0Z"/><path class="h" d="M144.68,74.61c-.24-.79-.76-1.3-1.55-1.55-.97-.31-1.86,.51-1.9,1.45-.11,2.49,.46,5.19,1.42,7.49,.9,2.15,2.79,4.48,5.37,4.38s4.04-2.6,3.76-4.97c-.15-1.3-.71-2.48-1.31-3.63-.55-1.05-1.14-2.06-1.87-2.99s-1.69-1.86-2.8-2.22c-1.4-.45-2.43,.53-2.97,1.72-1.07,2.33-.83,4.97,.29,7.23,1,2.03,2.83,3.92,4.77,5.09,1.13,.68,2.54,.89,3.68,.11,.93-.63,1.44-1.72,1.67-2.79,.89-4.19-1.65-8.64-5.68-10.05-2.25-.79-5.17-.19-5.76,2.45-.5,2.24,.73,4.57,1.98,6.35,1.34,1.9,3.05,3.52,5.06,4.71,1.17,.69,2.53,1.21,3.82,.5,.94-.51,1.47-1.54,1.64-2.56,.38-2.29-.34-5-1.44-7.01s-3.21-3.75-5.62-4.04c-1.2-.15-2.52,.03-3.39,.96s-.89,2.24-.66,3.42c.43,2.19,1.59,4.25,3.07,5.89,.73,.8,1.57,1.5,2.47,2.1,.97,.64,2.25,1.42,3.46,1.17,2.59-.53,2.43-4.46,1.97-6.42-.54-2.29-2.07-4.56-4.37-5.34-2.44-.83-4.81,.88-5.2,3.34s.85,5,2.43,6.71c1.49,1.61,4.71,2.84,6.21,.55,1.21-1.83,.91-4.6,.1-6.52s-2.99-4.73-5.44-3.68-2.71,4.46-2.12,6.67c.31,1.17,.92,2.43,1.97,3.1,1.15,.74,2.59,.54,3.58-.36s1.29-2.3,1.09-3.62c-.16-1.11-.49-2.54-1.33-3.35-.98-.96-2.71-1.01-3.54,.18-.76,1.08-.5,2.67-.06,3.83s1.27,2.76,2.71,2.83,2.2-1.18,2.46-2.4c.29-1.31,.3-2.7-.21-3.96-.47-1.17-1.28-2.11-2.17-2.98-.95-.93-1.93-1.84-2.89-2.76-.9-.86-1.88-1.81-3.22-1.74-.84,.04-1.53,.47-1.78,1.3-.17,.58-.25,1.22-.31,1.82-.12,1.03-.11,2.07,.02,3.1,.28,2.25,1.03,4.44,2.3,6.33s3.11,3.77,5.36,4.5c2.46,.8,5.19-.37,5.91-2.94s-.36-5.14-1.69-7.26c-.68-1.08-1.43-2.12-2.16-3.17s-1.42-2.1-2.31-2.98c-1.69-1.66-4.39-2.62-6.57-1.29-2.02,1.23-2.31,3.73-2.28,5.87,.02,1.93,3.02,1.93,3,0,0-.92-.1-2.18,.48-2.97s1.7-.57,2.43-.14c1.13,.66,1.86,1.87,2.59,2.91,.85,1.23,1.75,2.44,2.51,3.73s2.56,5.61-.36,5.51c-1.17-.04-2.2-.91-2.99-1.69-.87-.85-1.56-1.83-2.11-2.91-1.2-2.36-1.53-5.14-.89-7.7l-1.05,1.05c.29-.11,1.45,1.25,1.71,1.5,.79,.75,1.59,1.49,2.36,2.25,.63,.63,1.27,1.31,1.46,2.21,.08,.39,.09,.8,.05,1.2-.03,.23-.07,.47-.14,.69-.06,.1-.07,.14-.01,.12-.26,.39-.03,.32,.7-.21l.66,.39c-.37-.31-.61-.77-.77-1.22-.08-.24-.15-.49-.19-.74-.02-.11,0-.26-.03-.36v-.21l-.94,.57c-.17,.06-.15-.26-.08,.06,.06,.27,.18,.55,.25,.82,.12,.45,.31,1.01,.13,1.46-.11,.28-.27,.16,.01,.27-.32-.12-.51-.64-.62-.93-.37-.95-.47-2.2-.06-3.16,.15-.35,.42-.36,.1-.45,.35,.1,.65,.49,.89,.75,.59,.68,.96,1.52,1.15,2.4s.14,1.77-.15,2.61c-.03,.09,.13-.05,.15-.06-.15,.03-.28,0-.42-.03-.36-.08-.68-.27-.96-.51-.75-.64-1.28-1.57-1.64-2.47-.31-.78-.63-1.83-.13-2.6,1.03-1.59,2.88,1.1,3.23,1.98,.38,.96,.53,2.03,.39,3.05-.03,.24-.15,.5-.16,.74,0,.02-.05,.17-.06,.17-.02,0,.6-.37,.6-.37,0-.03-1.23-.63-1.32-.69-1.65-1.04-2.96-2.6-3.75-4.38-.17-.39-.3-.79-.42-1.19-.06-.22-.38-1.06-.21-1.29,.23-.32,1.34,0,1.68,.13,2.03,.78,2.99,2.92,3.42,4.91,.18,.83,.39,1.86,.16,2.63-.04,.15-.05,.31-.17,.36,.05-.02,.07-.12,.11-.11-.43-.12-.83-.39-1.2-.63-1.77-1.1-3.26-2.64-4.32-4.43-.49-.83-2.1-3.76-.06-3.66,1.68,.08,3.16,1.39,3.96,2.78,.76,1.32,1.16,3.18,.48,4.6-.08,.17-.14,.31-.29,.32-.33,.03-.93-.54-1.18-.75-.81-.65-1.61-1.4-2.21-2.26-1.12-1.59-1.8-3.77-.91-5.63,.04-.08,.16-.23,.17-.31,.06-.56-.8,.45-.86,.12,0,.06,.52,.33,.6,.4,.38,.31,.73,.69,1.02,1.08,.66,.88,1.17,1.89,1.66,2.87,.41,.82,.9,1.84,.64,2.77-.19,.69-.66,1.03-1.35,.74-1.82-.75-2.38-3.28-2.77-4.97-.29-1.26-.47-2.5-.42-3.79l-1.9,1.45-.02,.02-.54-.54,.02-.02c.56,1.84,3.46,1.06,2.89-.8h0Z"/><path class="h" d="M143.81,76.32c.5-.68,1.12-1.56,1.95-1.87,.93-.34,1.9,.44,2.63,.91,1.84,1.18,3.41,2.44,3.97,4.65,.62,2.48,1.11,5.1,1.47,7.63,.09,.66,.25,1.72-.28,2.25-.62,.62-1.96,.35-2.73,.27-.81-.09-1.5,.75-1.5,1.5,0,.88,.69,1.41,1.5,1.5,1.44,.16,3.03,.18,4.28-.69s1.8-2.35,1.8-3.85c0-1.61-.45-3.25-.75-4.82-.33-1.73-.54-3.56-1.08-5.24-.95-2.95-3.54-4.98-6.18-6.41-1.44-.78-3-1.06-4.53-.35-1.35,.63-2.28,1.83-3.14,3-.48,.65-.11,1.67,.54,2.05,.76,.45,1.57,.12,2.05-.54h0Z"/><path class="h" d="M82.87,94.36c-1.75,1.51-1.86,4.3-.76,6.2s3.3,2.82,5.42,2.82c1.93,0,3.85-.69,5.37-1.86,.61-.47,1.07-1,1.38-1.71,.36-.85,.42-1.78,.15-2.67-.34-1.08-1.12-2.01-1.9-2.81s-1.84-1.53-2.97-1.73c-.81-.14-1.6-.19-2.41,.06-.73,.22-1.47,.62-1.98,1.2s-.88,1.3-.88,2.12c0,.74,.33,1.61,.88,2.12s1.32,.91,2.12,.88,1.59-.28,2.12-.88c.06-.07,.12-.13,.19-.19l-.61,.47c.1-.07,.19-.13,.3-.18l-.72,.3c.14-.06,.28-.09,.43-.12l-.8,.11c.19-.02,.36-.02,.55,0l-.8-.11c.18,.03,.36,.08,.53,.14l-.72-.3c.23,.1,.43,.23,.63,.38l-.61-.47c.48,.38,.89,.86,1.26,1.35l-.47-.61c.14,.18,.25,.37,.34,.58l-.3-.72c.04,.1,.06,.2,.07,.31l-.11-.8c0,.07,0,.14,0,.21l.11-.8c-.01,.07-.03,.13-.06,.2l.3-.72c-.03,.06-.06,.12-.1,.17l.47-.61c-.1,.13-.22,.24-.35,.35l.61-.47c-.42,.31-.87,.56-1.34,.76l.72-.3c-.49,.2-.99,.33-1.5,.41l.8-.11c-.43,.06-.87,.06-1.3,.01l.8,.11c-.33-.05-.64-.12-.95-.24l.72,.3c-.24-.1-.46-.23-.67-.38l.61,.47c-.17-.14-.32-.28-.46-.45l.47,.61c-.1-.14-.19-.29-.26-.45l.3,.72c-.09-.22-.15-.43-.18-.67l.11,.8c-.02-.2-.02-.39,0-.6l-.11,.8c.03-.17,.07-.32,.14-.48l-.3,.72c.06-.13,.13-.24,.21-.35l-.47,.61c.07-.09,.15-.17,.24-.24,.56-.48,.88-1.41,.88-2.12s-.33-1.61-.88-2.12-1.32-.91-2.12-.88-1.49,.34-2.12,.88h0Z"/></g><g id="c"><path class="i" d="M41,20.51c8.47-9.68,21.23-16.35,34.28-13.17,3.59,.88,6.87,2.45,9.81,4.7,.76,.58,2.26,.56,3.03,0,6.6-4.82,15.05-7.02,23.09-5.77s14.66,5.41,19.4,11.53c2.76,3.56,4.6,7.5,5.63,11.82,.89,3.76,6.68,2.17,5.79-1.6-2.11-8.87-7.65-16.64-15.1-21.83C119.05,.72,109.21-1.07,99.83,.6c-5.28,.94-10.4,3.1-14.74,6.26h3.03c-12.28-9.39-29.63-7.49-41.84,.92-3.52,2.42-6.71,5.28-9.52,8.49-1.07,1.22-1.2,3.04,0,4.24,1.09,1.09,3.17,1.22,4.24,0h0Z"/><path class="i" d="M39.17,18.12c-6.95-.66-13.71,2.21-18.63,7.05-2.34,2.31-4.33,5.08-5.77,8.04s-2.75,6.52-2.84,9.99c-.01,.41-.02,.83-.04,1.24-.02,.31,.1,.27-.09,.46,.74-.76,.44-.61,.02-.39-.24,.12-.73,.32-1.14,.49-1.83,.77-3.46,1.9-4.93,3.23-2.93,2.65-4.25,6.02-4.96,9.81-1.3,6.97-1.48,15.66,3.2,21.49s13.4,7.43,20.04,5.36c3.67-1.15,2.11-6.94-1.6-5.79-2.24,.7-4.72,.75-6.98,.27-1.27-.27-2.6-.7-3.46-1.12-.57-.28-1.13-.6-1.66-.95-.09-.06-.68-.5-.4-.27-.28-.22-.55-.47-.8-.72-.22-.21-.42-.44-.62-.67-.22-.26-.04-.04,0,.01-.12-.16-.23-.33-.34-.5-.32-.5-.67-1.2-.83-1.59-.58-1.43-.95-2.99-1.15-4.51-.36-2.86-.2-6.2,.3-9.05,.53-3.01,1.17-5.44,3.48-7.54,1.03-.94,2.27-1.68,3.5-2.19,1.84-.77,3.46-1.76,4.09-3.79,.24-.76,.29-1.61,.32-2.41,.02-.35,.02-.71,.03-1.07,0-.17,.01-.34,.02-.51,.02-.54-.09,.43,0-.12,.25-1.47,.69-2.92,1.21-4.32,.8-2.17,2.39-4.97,3.88-6.76,2.1-2.53,4.28-4.35,7.2-5.76,1.12-.54,2.76-1.06,4.27-1.34,.5-.09,.34-.07,.74-.11s.82-.07,1.22-.08c.9-.03,1.79,0,2.69,.09,1.62,.15,3-1.49,3-3,0-1.75-1.38-2.85-3-3h0Z"/><path class="i" d="M140.95,29.74c4.12-2.85,9.58,.12,13.12,2.98,2.01,1.62,3.33,3.48,3.93,5.85s.36,4.69-.25,7.08c-.39,1.54,.5,3.3,2.1,3.69,2.17,.53,4.06,1.47,5.87,2.76,1.32,.94,3.34,.23,4.1-1.08,.88-1.51,.25-3.16-1.08-4.1-2.2-1.57-4.68-2.72-7.3-3.36l2.1,3.69c1.79-6.99,.36-14.33-5.49-18.98-5.47-4.34-13.58-8.23-20.12-3.7-1.33,.92-1.94,2.63-1.08,4.1,.77,1.32,2.77,2,4.1,1.08h0Z"/><path class="i" d="M34.69,101.49c1.92,6.44,5.92,11.82,11.55,15.5,4.83,3.15,10.54,4.89,16.22,5.69,1.6,.23,3.22-.39,3.69-2.1,.39-1.41-.48-3.46-2.1-3.69-5.23-.74-9.98-2.09-14.25-4.75-2.15-1.34-3.94-2.85-5.67-5-1.53-1.9-2.89-4.68-3.65-7.25-1.1-3.69-6.89-2.12-5.79,1.6h0Z"/><path class="i" d="M136.65,75.84c.96,2.89,1.5,5.87,1.82,8.89s.88,6.2,.47,9.18c-.67,4.85-5.4,7.24-9.5,9.36-1.41,.73-1.9,2.79-1.08,4.1,.47,.75,.55,1.34,.44,2.06-.17,1.1-.64,2.06-1.23,2.98-1.08,1.67-2.74,3.09-4.51,4.12-3.67,2.14-7.93,2.68-11.95,1.48-3.71-1.11-5.29,4.68-1.6,5.79,5.82,1.74,12.42,.71,17.47-2.65s10.42-10.63,6.55-16.81l-1.08,4.1c5.4-2.79,11.1-6.41,12.25-12.88,.62-3.51,.15-7.1-.22-10.61s-.9-7.25-2.06-10.72c-.51-1.54-2.07-2.54-3.69-2.1-1.5,.41-2.61,2.15-2.1,3.69h0Z"/><path class="i" d="M140.2,85.51c4.63,7.9,13.65,11.27,22.46,9.46,8.56-1.77,16.17-8.45,19.4-16.49,1.99-4.95,1.91-10.53,.33-15.58-1.15-3.67-6.95-2.1-5.79,1.6,2.27,7.26,.21,14.13-5.29,19.22-1.32,1.23-2.53,2.1-4.15,3.06s-2.71,1.48-4.4,1.98c-.82,.24-1.65,.43-2.49,.57-.06,0-.58,.08-.15,.03-.16,.02-.32,.04-.48,.05-.48,.04-.95,.07-1.43,.08-1.93,.04-2.85-.06-4.67-.57-3.43-.96-6.27-3.18-8.18-6.44s-7.14-.31-5.18,3.03h0Z"/><path class="i" d="M36.64,76.4c1.17-1.89,1.76-4.14,1.77-6.36l-.11-.8c-.09-.39-.27-.73-.54-1.02-.38-.5-.93-.93-1.56-1.08-.53-.12-1.07-.12-1.6,0-.78,.18-1.35,.76-1.79,1.38-.22,.32-.44,.64-.65,.97-.41,.64-.5,1.59-.3,2.31s.73,1.45,1.38,1.79c.7,.37,1.54,.55,2.31,.3s1.36-.7,1.79-1.38c.21-.33,.42-.65,.65-.97l-5.59-1.51c0,.43-.03,.85-.08,1.27l.11-.8c-.11,.81-.33,1.61-.65,2.36l.3-.72c-.18,.42-.39,.82-.63,1.21-.4,.65-.5,1.58-.3,2.31s.73,1.45,1.38,1.79c.7,.37,1.54,.55,2.31,.3s1.37-.69,1.79-1.38h0Z"/><path class="i" d="M1.34,73.28c1.8,7.4,9.75,10.47,16.62,10.9,1.57,.1,3.07-1.45,3-3-.08-1.71-1.32-2.9-3-3-.33-.02-.67-.05-1-.08-.17-.02-.34-.05-.51-.06,.9,.03,.35,.05,.11,.01-.7-.11-1.39-.25-2.07-.42s-1.32-.36-1.96-.6c-.17-.06-.33-.13-.5-.19-.63-.24,.32,.16,.06,.03-.31-.17-.64-.3-.95-.46-.28-.15-.56-.31-.83-.48s-.57-.47-.86-.58c.36,.28,.44,.35,.27,.21-.07-.05-.13-.11-.2-.16-.13-.11-.26-.22-.39-.34-.25-.23-.49-.47-.72-.73-.09-.1-.22-.31-.33-.39,.25,.18,.36,.49,.06,.06-.19-.28-.37-.58-.53-.88-.07-.13-.13-.37-.23-.47,.14,.13,.24,.64,.07,.15-.13-.37-.25-.74-.34-1.12-.37-1.53-2.18-2.58-3.69-2.1-1.59,.51-2.49,2.06-2.1,3.69h0Z"/><path class="i" d="M14.4,82.5c3.97,2.26,8.83,2.81,13.2,1.48,2.1-.64,4.41-1.71,5.88-3.4,1.69-1.95,2.22-4.69,2.4-7.2h-3l-.03,.75c-.06,1.93,2.94,1.93,3,0l.03-.75c.07-1.94-2.87-1.91-3,0s-.48,4.08-1.84,5.42c-1.27,1.25-3.11,2-4.81,2.45-3.46,.91-7.2,.44-10.31-1.34-1.68-.96-3.19,1.63-1.51,2.59h0Z"/><path class="i" d="M32.67,70.68c.15,1.66-.68,3.09-1.65,4.39-.85,1.14-1.89,2.19-3.02,3.05-2.11,1.59-5.66,3.32-8.3,2.07-.73-.35-1.62-.2-2.05,.54-.38,.65-.2,1.7,.54,2.05,3.71,1.76,8.2,.24,11.33-2.07,1.58-1.17,2.93-2.54,4.1-4.12,1.25-1.69,2.25-3.74,2.06-5.9-.07-.81-.64-1.5-1.5-1.5-.76,0-1.57,.69-1.5,1.5h0Z"/><path class="i" d="M18.32,82.14c.86-.2,1.92,.36,2.76,.54,1.01,.22,2.06,.36,3.1,.38,2.03,.04,4.1-.42,5.79-1.58,.55-.38,.87-1.02,.69-1.69-.16-.58-.8-1.18-1.45-1.1-1.67,.21-3.34,.34-5.02,.4-.82,.03-1.64,.04-2.45,.03-.57,0-1.41,.15-1.88-.22l-1.16,2.74c5.01,.78,10.54,.88,14.48-2.83,1.41-1.33-.72-3.44-2.12-2.12-3.08,2.89-7.69,2.67-11.57,2.06-1.72-.27-2.53,1.69-1.16,2.74,.7,.53,1.6,.59,2.44,.61,.95,.03,1.91,.02,2.86,0,1.86-.05,3.72-.19,5.57-.42l-.76-2.8c-1.48,1.01-3.18,1.27-4.95,1.14-2-.15-3.96-1.26-5.98-.78-1.88,.44-1.08,3.34,.8,2.89h0Z"/><path class="i" d="M32.88,69.33c-1.46,3.01-3.11,6.45-6.37,7.85-3.86,1.66-8.34,.56-12.39,.69-1.93,.06-1.93,3.06,0,3,4.67-.15,9.48,.92,13.9-1.1,3.71-1.7,5.74-5.43,7.44-8.93,.84-1.73-1.74-3.25-2.59-1.51h0Z"/><path class="g" d="M137.29,26.07c1.93,0,1.93-3,0-3s-1.93,3,0,3h0Z"/><path class="i" d="M135.51,22.52c.67,3.9,.68,7.94,.02,11.84-.11,.67,.08,1.33,.69,1.69,.57,.33,1.35,.24,1.82-.23,2.01-2.04,3.43-4.63,4.02-7.43,.17-.79-.23-1.62-1.05-1.85-.75-.2-1.68,.25-1.85,1.05-.49,2.32-1.58,4.41-3.25,6.11l2.51,1.46c.76-4.47,.75-8.96-.02-13.43-.14-.8-1.12-1.25-1.85-1.05-.84,.23-1.19,1.04-1.05,1.85h0Z"/><path class="g" d="M37.99,21.22h.81c.21,0,.4-.04,.58-.13,.19-.06,.35-.16,.48-.31,.15-.14,.25-.3,.31-.48,.09-.18,.14-.37,.13-.58l-.05-.4c-.07-.25-.2-.47-.39-.66l-.3-.23c-.23-.14-.49-.2-.76-.2h-.81c-.21,0-.4,.04-.58,.13-.19,.06-.35,.16-.48,.31-.15,.14-.25,.3-.31,.48-.09,.18-.14,.37-.13,.58l.05,.4c.07,.25,.2,.47,.39,.66l.3,.23c.23,.14,.49,.2,.76,.2h0Z"/><path class="i" d="M38.45,17.14l.87,.18-.9-2.2c-2.11,4.8-3.02,10.03-2.47,15.26,.08,.74,.51,1.38,1.3,1.47,.68,.08,1.52-.33,1.65-1.07,.87-5.01,2.91-9.68,5.98-13.74,.49-.65,.1-1.68-.54-2.05-.77-.45-1.56-.11-2.05,.54-3.2,4.23-5.38,9.23-6.28,14.45l2.95,.4c-.49-4.67,.17-9.43,2.06-13.74,.36-.82,.15-1.99-.9-2.2l-.87-.18c-.79-.16-1.62,.23-1.85,1.05-.2,.74,.25,1.68,1.05,1.85h0Z"/><path class="i" d="M163.6,51.32c3.92,1.09,7.35,3.27,9.95,6.66s3.84,7.64,3.73,11.9c-.04,1.62,1.41,3,3,3s2.96-1.37,3-3c.27-11.24-7.28-21.34-18.09-24.35-3.73-1.04-5.32,4.75-1.6,5.79h0Z"/><path class="i" d="M33.29,69.52c-2.42,4.99-3.22,10.43-3.28,15.94-.03,2.63-.11,5.4,.92,7.86,.56,1.33,1.33,2.45,2.24,3.57,.4,.49,.83,.95,1.27,1.41,.2,.2,.4,.4,.59,.6,.14,.14,.28,.28,.42,.42,.17,.13,.17,.16,0,.1l-.41-1.51c.11-.16,.12-.14,.04,.06-.03,.12-.06,.24-.09,.36-.07,.31-.12,.62-.17,.94-.11,.77-.2,1.54-.15,2.31,.1,1.64,.5,3.16,1.19,4.64,.59,1.28,1.47,2.43,2.47,3.42,.85,.85,1.91,1.62,2.57,2.6,.9,1.34,2.64,1.93,4.1,1.08,1.33-.78,1.99-2.75,1.08-4.1-1.68-2.5-4.92-4.25-5.38-7.25-.29-1.87,.88-3.67-.08-5.56-.78-1.54-2.36-2.54-3.37-3.92-.9-1.23-1.18-2.46-1.23-3.96-.06-1.89-.05-3.78,.06-5.67,.2-3.52,.83-7.09,2.38-10.29,.71-1.46,.4-3.24-1.08-4.1-1.32-.77-3.39-.39-4.1,1.08h0Z"/></g><g id="d"><path class="i" d="M65.09,67.16c-.67,1.32-1.3,2.74-1.22,4.25,.1,1.69,.92,3.21,2.41,4.07,1.38,.81,3.06,.87,4.47,.08,.89-.5,1.52-1.42,1.83-2.37,.22-.66,.25-1.38,.29-2.07,.06-1.02,.23-2.08,.14-3.1-.12-1.42-.48-2.67-1.41-3.79-1.09-1.31-3.03-1.68-4.57-1.03s-2.31,1.97-2.93,3.46c-.73,1.78-1.31,3.72-1.28,5.66,.04,2.55,1.39,5.65,4.1,6.35,1.26,.32,2.6-.02,3.54-.92,.67-.63,.98-1.34,1.31-2.18,.49-1.23,.71-2.59,.79-3.9,.08-1.43-.08-2.89-.67-4.2-.71-1.57-2.31-2.49-3.99-2.58-1.48-.08-3.07,.59-4.08,1.66-1.18,1.26-1.65,2.91-1.74,4.6-.08,1.43,.04,3.11,.89,4.32,1.43,2.02,4.35,2.61,6.2,.76,1.11-1.11,1.19-3.15,0-4.24s-3.06-1.19-4.24,0c.48-.31,.58-.4,.32-.27l.72-.3c-.07,.03-.15,.05-.23,.05l.8-.11c-.08,0-.16,0-.24,0l.8,.11c-.13-.02-.23-.06-.35-.11l.72,.3c-.38-.2,.36,.34,.45,.46,.32,.43,.05,.04,0-.07l.3,.72c-.1-.25-.15-.49-.19-.75l.11,.8c-.08-.73-.09-1.48,0-2.21l-.11,.8c.06-.36,.14-.71,.27-1.05l-.3,.72c.06-.14,.13-.28,.2-.42,.05-.09,.11-.18,.17-.26-.34,.42-.43,.54-.27,.37,.38-.42-.47,.26-.22,.15,.13-.06,.25-.15,.39-.22l-.72,.3c.23-.1,.47-.16,.72-.2l-.8,.11c.16-.01,.32-.01,.48,0l-.8-.11c.16,.03,.3,.06,.46,.12l-.72-.3c.07,.03,.14,.07,.21,.11-.44-.36-.54-.44-.33-.24-.58-.65-.2-.26-.08,.03l-.3-.72c.1,.29,.17,.58,.21,.89l-.11-.8c.1,.84,.09,1.68-.01,2.52l.11-.8c-.12,.89-.35,1.76-.7,2.59l.3-.72c-.03,.06-.19,.3-.19,.36l.3-.4c.46-.31,.56-.39,.29-.26l.72-.3-.12,.03,.8-.11c-.09,.01-.19,.01-.28,0l.8,.11-.14-.04,.72,.3c-.09-.04-.18-.08-.26-.14,.4,.33,.49,.39,.27,.19-.09-.1-.18-.21-.27-.29,.53,.48,.34,.47,.17,.19-.09-.15-.16-.3-.23-.45l.3,.72c-.15-.36-.25-.73-.31-1.11l.11,.8c-.08-.63-.06-1.26,.02-1.89l-.11,.8c.19-1.28,.6-2.5,1.09-3.69l-.3,.72c.12-.27,.25-.53,.39-.79s-.57,.58-.14,.19c.17-.16,.05-.07-.36,.27,.07-.04,.14-.08,.22-.11l-.72,.3c.08-.03,.16-.05,.25-.06l-.8,.11c.11,0,.21,0,.32,0l-.8-.11c.1,.02,.19,.05,.28,.09l-.72-.3c.3,.16-.36-.31-.36-.31,.03,.07,.38,.44-.03-.08-.36-.47-.04,.01,.03,.17l-.3-.72c.12,.31,.19,.62,.24,.94l-.11-.8c.07,.61,.02,1.21-.02,1.82-.05,.75-.07,1.5-.15,2.24l.11-.8c-.03,.19-.07,.37-.13,.56l.3-.72c-.15,.34-.31,.29,.18-.16,.11-.1,.7-.44,.25-.24l.72-.3c-.06,.02-.13,.04-.2,.05l.8-.11c-.14,.02-.28,.02-.42,0l.8,.11c-.15-.03-.29-.07-.43-.13l.72,.3c-.08-.04-.17-.1-.25-.13-.2-.07,.57,.52,.28,.22-.26-.28,.24,.33,.24,.34,0-.03-.16-.27-.17-.3l.3,.72c-.07-.18-.11-.36-.14-.55l.11,.8c-.02-.23-.01-.45,0-.68l-.11,.8c.06-.41,.18-.79,.34-1.18l-.3,.72c.14-.33,.29-.65,.45-.96,.71-1.4,.41-3.32-1.08-4.1-1.37-.72-3.35-.42-4.1,1.08h0Z"/><path class="i" d="M110.84,70.09c-.58,1.07-1.05,2.24-1.28,3.43s-.39,2.51,.02,3.74c.55,1.62,1.94,3.07,3.77,3.03,1.95-.05,3.35-1.41,3.88-3.21,.35-1.18,.47-2.48,.57-3.7,.09-1.06,.1-2.13,0-3.18-.09-.86-.23-1.64-.68-2.39-.51-.86-1.38-1.54-2.34-1.82-1.27-.37-2.7-.14-3.81,.58-1.45,.95-2.14,2.4-2.31,4.09-.12,1.21,.21,2.45,.48,3.63,.24,1.05,.41,2.13,.73,3.16,.63,2.07,2.62,3.35,4.77,2.74,2.52-.72,3.88-3.64,4.27-6.03,.41-2.51,.14-4.9-.9-7.23-.71-1.59-2.14-2.97-4-2.96-1.72,.01-3.18,1.07-4.01,2.54-.65,1.14-.92,2.45-1.11,3.73-.21,1.44-.34,2.86-.27,4.31,.07,1.57,1.33,3.07,3,3,1.56-.07,3.08-1.32,3-3-.05-1.11,0-2.22,.14-3.32l-.11,.8c.12-.87,.3-1.72,.55-2.56,.15-.51-.34,.63-.08,.19,.04-.08,.09-.17,.14-.25,.17-.25,.1-.16-.22,.27l.09-.1c.22-.21,.11-.14-.32,.21,.26-.16,.13-.11-.4,.13,.07-.03,.15-.04,.23-.05l-.8,.11c.08,0,.16,0,.24,0l-.8-.11c.28,.06,.17,0-.34-.18l-.37-.3c.15,.16,.14,.14-.04-.08-.17-.23-.19-.25-.06-.06,.07,.14,.15,.27,.22,.41,.04,.07,.07,.15,.1,.22,.09,.21,.05,.1-.14-.34,.05,.31,.22,.63,.3,.94s.14,.64,.19,.97l-.11-.8c.11,.82,.11,1.64,0,2.46l.11-.8c-.06,.38-.13,.76-.23,1.13-.06,.21-.12,.42-.2,.63-.04,.1-.08,.21-.12,.31,.19-.44,.24-.55,.14-.34-.09,.17-.17,.35-.26,.51-.06,.11-.45,.67-.1,.22,.18-.22,.19-.25,.04-.08-.23,.21-.14,.15,.26-.18-.27,.16-.15,.12,.34-.11-.08,.03-.16,.05-.25,.05l.8-.11h-.12l.8,.11c-.49-.09-.2,.09,.88,.56,.48,.99,.65,1.25,.49,.76-.03-.18-.08-.37-.13-.55l-.33-1.46c-.2-.89-.44-1.79-.58-2.69l.11,.8c-.05-.41-.07-.8-.03-1.21l-.11,.8c.01-.11,.03-.22,.06-.33,.09-.3,.05-.22-.13,.23,.44-.54-.46,.47-.12,.12s-.67,.55-.11,.12c-.54,.21-.66,.27-.38,.17,.08-.02,.15-.04,.23-.05l-.8,.11c.15-.02,.3-.02,.45,0l-.8-.11c.42,.09-.63-.36-.35-.18,.13,.07,.07,.03-.17-.14-.22-.14-.39-.33-.51-.56,.23,.38-.15-.29-.12-.3,.01,0,.09,.44,.09,.46l-.11-.8c.14,1.42,.08,2.86-.11,4.27l.11-.8c-.08,.54-.16,1.09-.29,1.63-.02,.08-.06,.18-.07,.26-.03,.27,.29-.56,.15-.34-.07,.13-.03,.09,.13-.14,.09-.15,.22-.27,.37-.35,.13-.12,.28-.2,.45-.25,.28-.1,.33-.12,.13-.08l.8-.11c-.07,0-.14,0-.21,0l.8,.11c-.19-.05-.13-.03,.17,.08,.27,.08,.51,.23,.71,.44,.06,.07,.45,.69,.24,.27-.12-.23,.22,.77,.14,.31-.02-.13-.06-.25-.08-.38l.11,.8c-.04-.35,0-.69,.04-1.04l-.11,.8c.08-.54,.19-1.07,.35-1.59,.07-.22,.13-.48,.25-.68-.13,.21-.25,.56-.04,.14,.07-.14,.14-.27,.21-.4,.74-1.38,.39-3.33-1.08-4.1s-3.31-.4-4.1,1.08h0Z"/></g><g id="e"><path class="i" d="M84.47,84.46c.79-.18,1.59-.33,2.39-.44l-.6,.08c.71-.09,1.42-.16,2.14-.19,.66-.03,1.34-.07,2,.01l-.6-.08c.11,.02,.2,.04,.3,.08l-.54-.23c.06,.02,.12,.05,.18,.09-.56-.66-.74-.83-.54-.5l-.23-.54c.04,.1,.07,.19,.09,.29l-.08-.6c.02,.14,.02,.28,0,.43l.08-.6c-.03,.18-.07,.36-.14,.53l.23-.54c-.04,.1-.09,.2-.15,.3-.05,.08-.25,.36-.01,.05,.32-.41-.27,.29-.29,.26-.01-.02,.51-.36,.12-.1-.09,.06-.17,.11-.26,.16-.22,.12-.44,.22-.67,.32l.54-.23c-.67,.27-1.36,.56-2.08,.66l.6-.08c-.17,.02-.34,.02-.52,0l.6,.08c-.17-.03-.34-.06-.5-.13l.54,.23c-.12-.05-.23-.11-.34-.17-.33-.18,.41,.37,.15,.12-.09-.09-.18-.18-.27-.28-.27-.28,.35,.5,.08,.1s-.5-.86-.69-1.32l.23,.54c-.04-.09-.08-.19-.12-.28-.23-.56-.49-1.03-1.03-1.34-.48-.28-1.19-.4-1.73-.23-1.24,.4-1.8,1.52-1.57,2.77,.45,2.43,2.39,4.29,4.63,5.13,1.09,.41,2.44,.5,3.57,.19,.87-.24,1.69-.78,2.16-1.57,.29-.49,.39-1.02,.59-1.53l-.23,.54c.05-.1,.2-.3-.06,.02-.07,.12-.17,.22-.3,.29-.2,.13-.23,.16-.1,.09l-.54,.23,.08-.03c.56-.22,1.03-.49,1.34-1.03,.28-.48,.4-1.19,.23-1.73s-.51-1.07-1.03-1.34-1.18-.45-1.73-.23c-.75,.3-1.41,.72-1.77,1.48-.21,.45-.32,.93-.51,1.38l.23-.54c-.2,.41,.24-.24,.11-.11-.13,.12-.04,.05,.26-.2-.06,.04-.12,.07-.18,.09l.54-.23c-.19,.08-.39,.13-.59,.17l.6-.08c-.38,.05-.75,.04-1.13,0l.6,.08c-.38-.06-.74-.16-1.09-.3l.54,.23c-.27-.11-.53-.25-.78-.41-.07-.05-.14-.1-.21-.14-.25-.16,.19,.13,.21,.16-.07-.11-.25-.22-.35-.31s-.19-.2-.28-.3c-.11-.13-.24-.37,.13,.17-.04-.06-.08-.11-.12-.17-.17-.26-.32-.53-.44-.81l.23,.54c-.12-.29-.2-.58-.26-.89l-4.34,1.2c.6,1.48,1.29,2.93,2.7,3.81,1.64,1.03,3.51,.54,5.17-.14,.92-.38,1.81-.81,2.51-1.54s1.17-1.64,1.31-2.66c.18-1.31-.33-2.64-1.52-3.32-.87-.49-1.91-.47-2.89-.46-1.94,.04-3.89,.29-5.77,.73-1.15,.27-1.94,1.64-1.57,2.77,.39,1.2,1.54,1.86,2.77,1.57h0Z"/><path class="i" d="M85.31,84.04c.06,1.04,.06,2.08,0,3.12-.03,.5,.04-.1-.04,.35-.05,.27-.1,.54-.17,.81s-.15,.53-.25,.79c.12-.32-.15,.31-.16,.33-.67,1.26-1.67,2.01-2.9,2.37-.19,.06-.38,.1-.57,.14-.57,.12,.17,.03-.27,.04-.39,0-.78,.02-1.17-.02,.51,.05-.06-.02-.18-.05-.22-.05-.44-.12-.66-.19-.09-.03-.18-.07-.28-.1,.24,.1,.24,.1,0-.01-.17-.1-.35-.18-.51-.28s-.33-.21-.49-.33c.38,.27-.08-.07-.15-.14-.17-.15-.33-.32-.49-.48-.07-.08-.47-.62-.2-.23-.22-.33-.42-.66-.6-1.01-.23-.45,.05,.26-.07-.19-.07-.25-.15-.5-.21-.76l-3.76,2.19,.84,.7c.9,.75,2.31,.95,3.18,0,.76-.83,.97-2.38,0-3.18l-.84-.7c-.75-.62-1.84-.92-2.73-.35s-1.27,1.53-1.03,2.54c1.13,4.92,6.33,8.09,11.21,6.8,2.32-.62,4.42-2.16,5.64-4.24,1.4-2.38,1.53-5.23,1.38-7.92-.06-1.17-.99-2.31-2.25-2.25-1.16,.05-2.32,.99-2.25,2.25h0Z"/><path class="i" d="M85.18,87.67c.4,2.11,.97,4.18,2.49,5.78,1.41,1.49,3.45,2.37,5.45,2.69,1.18,.19,2.37,.26,3.57,.26s2.58,.06,3.7-.59c1.86-1.08,3-3.51,3.5-5.52,.29-1.14-.37-2.49-1.57-2.77s-2.46,.35-2.77,1.57c-.21,.84-.31,1.14-.71,1.83-.1,.18-.21,.35-.32,.52-.05,.07-.21,.3-.06,.11-.11,.14-.25,.26-.37,.4-.21,.25,.08-.13,.13-.08h.08c-.13,0-.26,.01-.39,.02-.18,0-.36,0-.54,0-.45,0-.91,0-1.36,0-.84-.02-1.54-.05-2.23-.19-.34-.07-.68-.16-1.02-.26-.18-.06-.35-.12-.53-.19,.22,.09,.04,.01-.07-.05-.33-.17-.65-.35-.95-.57,.19,.14,.03,.02-.06-.06-.13-.13-.26-.26-.39-.39-.1-.12-.1-.11,0,.03l-.14-.2c-.11-.17-.21-.34-.3-.51-.02-.05-.22-.49-.11-.22-.06-.15-.11-.3-.16-.45-.25-.77-.4-1.56-.55-2.36-.22-1.16-1.68-1.92-2.77-1.57-1.24,.4-1.81,1.53-1.57,2.77h0Z"/><path class="i" d="M78.04,94.55c-.19,2.99-.07,6.23,1.71,8.78s4.8,3.7,7.91,3.66,5.85-1.12,7.72-3.49,3.21-5.73,2.85-8.73c-.15-1.21-.93-2.25-2.25-2.25-1.1,0-2.4,1.04-2.25,2.25,.25,2.05-.52,4.15-1.73,5.8-.96,1.31-2.65,1.9-4.34,1.92-.92,0-1.82-.09-2.56-.38-.24-.09-.46-.24-.69-.37-.29-.16-.1-.03-.34-.25-.42-.4-.43-.4-.7-.84-.31-.5-.31-.5-.48-.99s-.3-1.01-.37-1.52c-.15-1.16-.07-2.41,0-3.6s-1.09-2.25-2.25-2.25c-1.28,0-2.17,1.03-2.25,2.25h0Z"/></g></svg>