<?xml version="1.0" encoding="UTF-8"?><svg xmlns="http://www.w3.org/2000/svg" viewBox="0 0 425 425"><defs><style>.c{fill:#fff;}.d{fill:#f9bb57;}</style></defs><g id="a"><circle class="d" cx="212.5" cy="212.5" r="212.5"/></g><g id="b"><path class="c" d="M245.59,38.8l7.64-9.54c.54-.67,1.05-1.36,1.63-1.99,.23-.25,.6-.5,.78-.77,.02-.03-1,.79-.48,.43,.28-.15,.21-.12-.22,.09-.23,.15-.48,.23-.75,.24-.12,.02-1.04,.11-1.1-.05,.01,.04,.58,.15,.64,.17,.05,.01,.64,.2,.64,.22,0,0-1.06-.46-.39-.17,.94,.41,1.88,.82,2.81,1.23,7.2,3.17,14.34,6.49,21.41,9.96,14.13,6.93,27.98,14.44,41.5,22.51,1.69,1.01,3.38,2.02,5.05,3.05,.32,.19,.63,.39,.94,.6,.14,.09,.29,.24,.44,.31,0,0-.94-.82-.51-.39,.24,.24,.5,.51,.76,.73,.46,.4-.42-.56-.42-.55,.43,.68-.11-.36-.17-.56,.09,.29,.05,.65,.03-.16-.02-.49-.03-.86,.08-1.34-.24,1,.58-.87-.02-.01,0,0,.78-.9,.33-.41-.14,.15-.26,.31-.4,.46-.36,.41-.74,.8-1.11,1.2l-4.19,4.52c-.69,.75-1.37,1.52-2.1,2.24-.06,.06-.44,.35-.44,.42,0-.06,.96-.63,.41-.33-.6,.32,.58-.21,.57-.2,.92-.26,1.94,.08,2.81,.39-.14-.05-.73-.49,0,.03,.68,.48,.16,.1,.03-.03-.3-.29-.62-.57-.93-.85-.67-.61-1.35-1.21-2.04-1.81-2.91-2.55-5.93-4.96-8.99-7.32-11.26-8.65-23.61-15.7-36.68-21.22-6.62-2.79-13.38-5.2-20.3-7.12-3.37-.93-6.76-1.76-10.18-2.47-2.68-.56-5.49-1.18-7.98,.39-3.92,2.47-4.18,7.93-.55,10.73,1.59,1.23,3.67,1.7,5.64,1.18s4.07-2.36,4.38-4.46c.25-1.66,.28-3.12-.6-4.62-.73-1.24-2.16-2.43-3.59-2.76-2.86-.65-6.88,.87-7.38,4.19l-.02,.17,1.54-2.65-.1,.09,2.65-1.54-.14,.02h3.19l3.56,3.64v3.19l.05-.18-1.54,2.65-1.59,.65c-.64,.58-1.33,.77-2.07,.58-.93-.02-.34-.05-.06,.01,.41,.09,.82,.16,1.23,.25,.89,.18,1.78,.37,2.66,.57,1.7,.38,3.4,.79,5.09,1.23,3.38,.88,6.74,1.86,10.05,2.96s6.6,2.3,9.84,3.61c.39,.16,.78,.32,1.16,.48,.19,.08,.39,.16,.58,.24,.63,.26-.46-.19-.47-.2,.88,.42,1.8,.77,2.69,1.17,1.6,.71,3.18,1.45,4.75,2.21,6.29,3.05,12.38,6.5,18.23,10.33,2.92,1.91,5.78,3.92,8.57,6.02,.34,.25,.67,.51,1,.76,.53,.4-.37-.29-.38-.3,.16,.13,.33,.26,.5,.39,.72,.56,1.43,1.12,2.13,1.7,1.36,1.1,2.7,2.22,4.02,3.36s2.57,2.33,3.88,3.47c2.45,2.13,5.49,3.4,8.75,2.38,2.5-.78,4.28-2.57,6.01-4.43l4.19-4.52c1.65-1.78,3.45-3.53,4.4-5.79,1.15-2.72,1.04-5.75-.44-8.35-2.05-3.6-6.11-5.56-9.53-7.61-13.5-8.1-27.33-15.65-41.44-22.61-7.13-3.52-14.33-6.89-21.6-10.11-4.74-2.1-9.71-5.02-14.83-2.21-1.83,1.01-3.09,2.62-4.36,4.22l-3.82,4.77-3.82,4.77c-1.03,1.29-1.76,2.53-1.76,4.24,0,1.47,.65,3.23,1.76,4.24,2.18,2,6.39,2.62,8.49,0h0Z"/><path class="c" d="M345.32,94.97c4.33-4.13,9.12-7.7,14.32-10.66l-2.05-.54,4.76,10.66c.38,.85,.76,1.7,1.14,2.56,.19,.43,.23,.33,0,.63-.19,.23-.78,.49-1.03,.64-1.57,.96-3.16,1.87-4.77,2.75s-3.25,1.71-4.91,2.5c-.69,.33-1.58,.92-2.37,.97-.84,.06-1.15-.57-1.55-1.21-2.04-3.34-4.02-6.73-6.03-10.09-.99-1.66-3.58-.15-2.59,1.51l3.86,6.46c1.04,1.75,1.98,4.01,3.5,5.38,1.65,1.49,3.68,.94,5.49,.13,2.07-.93,4.1-1.98,6.1-3.06s3.97-2.12,5.8-3.39,1.91-2.84,1.08-4.73c-1.93-4.42-3.94-8.81-5.91-13.22-.33-.75-1.41-.9-2.05-.54-5.41,3.08-10.43,6.83-14.93,11.13-1.4,1.34,.72,3.46,2.12,2.12h0Z"/><path class="c" d="M249.35,34.93c4.67,3.69,9.31,7.24,14.66,9.9s10.25,5.12,15.23,7.99,9.94,5.82,14.84,8.84,9.36,6.05,14.21,8.76c2.68,1.5,5.5,2.95,8.41,3.97,3.83,1.34,7.12-.55,10.47-2.16,2.37-1.14,4.18-3.54,4.06-6.27-.1-2.43-1.46-4.5-3.21-6.11-2.11-1.94-4.59-3.26-7.08-4.62s-4.71-2.71-6.96-4.22c-1-.67-1.99-1.36-2.96-2.08-.3-.22-.61-.45-.91-.67-.16-.12-.94-.71-.29-.22,.76,.57-.42-.33-.46-.37-.3-.23-.59-.47-.88-.71-4.51-3.67-8.5-7.88-13.4-11.06-5.37-3.48-11.05-6.52-16.59-9.73-3.01-1.75-6.02-3.82-9.37-4.89-3.84-1.23-8.69-.45-11.4,2.72-2.21,2.57-2.29,5.9,0,8.49,2.52,2.84,5.68,5.04,8.79,7.18,1.4,.96,2.8,1.92,4.16,2.94,.33,.24,.65,.52,.99,.75-1.31-.87-.15-.12,.1,.08,.65,.51,1.3,1.03,1.95,1.55,5.81,4.64,11.49,9.09,18.49,11.79,2.93,1.13,6.71-1.25,7.38-4.19,.78-3.43-1.05-6.17-4.19-7.38-.19-.07-.38-.15-.58-.22-.42-.17-.26-.1,.49,.21-.31-.21-.78-.35-1.12-.52-.67-.33-1.34-.68-1.99-1.04-1.37-.77-2.69-1.62-3.98-2.52-.68-.47-1.34-.96-2-1.45-.28-.21-.55-.42-.82-.62-.35-.27-.22-.17,.39,.31-.16-.13-.33-.25-.49-.38-1.25-.98-2.49-1.98-3.74-2.97-2.81-2.24-5.66-4.4-8.62-6.43-.65-.45-1.3-.89-1.95-1.35-.29-.21-.58-.41-.87-.63-.23-.17-.46-.34-.69-.51l.53,.42c-.43-.63-1.39-1.13-1.96-1.65-.63-.58-1.22-1.19-1.79-1.83v8.49s.48-.48,.48-.51c0,.07-1.21,.91-.34,.38-.12,.07-1.37,.49-.43,.27-.24,.06-1.41-.06-.53,.09,.22,.04,.8,.13-.09-.07-1.02-.22-.04,0,.21,.07,.32,.08,.89,.52,.34,.06-.6-.5,.33,.16,.51,.26,2.22,1.14,4.35,2.49,6.5,3.74,4.43,2.57,8.88,5.11,13.29,7.72,1.03,.61,2.05,1.23,3.06,1.88,.44,.29,.87,.58,1.3,.88,.24,.17,.49,.35,.73,.52,.29,.21,1.17,.65,.04,.02,.94,.52,1.8,1.51,2.59,2.23,.9,.82,1.79,1.65,2.69,2.46,3.79,3.42,7.86,6.56,12.13,9.36,2.26,1.48,4.58,2.85,6.96,4.13,1.02,.55,2.04,1.09,3.02,1.71,.23,.14,.44,.31,.68,.45,.62,.37-.9-.81-.1-.08,.2,.18,.4,.35,.59,.54,1.44,1.42-.87,.24-.63-2.29l.82-3.03-.16,.23,2.15-2.15c-.85,.63-1.96,1-2.92,1.45-.06,.03-.68,.39-.81,.38,.48,.04,1.06-.31,.33-.17,2.86-.54,2.53,.25,1.65-.09-.26-.1-.97-.25-1.17-.45,.08,.08,1.25,.56,.17,.06-.28-.13-.56-.25-.83-.38-.55-.26-1.1-.53-1.65-.81-1.16-.59-2.3-1.22-3.43-1.87-4.56-2.63-8.94-5.56-13.42-8.32-9.18-5.65-18.45-11.19-28.17-15.88-2.67-1.29-5.29-2.64-7.77-4.28-1.15-.76-2.27-1.57-3.37-2.4-.25-.18-.49-.37-.73-.56-1.25-.94,.99,.78-.24-.19-.6-.47-1.21-.95-1.81-1.42-1.3-1.03-2.52-1.76-4.24-1.76-1.47,0-3.23,.65-4.24,1.76-1.99,2.16-2.63,6.41,0,8.49h0Z"/><path class="c" d="M243.54,37.96c.78-1.14-.94,.86,.07-.08,.3-.28,.57-.59,.88-.86l.31-.27c.5-.41,.42-.35-.24,.17,.21-.28,.73-.53,1.02-.72,1.66-1.14,3.36-2.24,5.04-3.35s3.66-2.26,5.12-3.78c2.24-2.33,3.36-5.55,2.33-8.71s-4.13-5.35-7.5-5.46c-2.85-.1-5.26,1.21-7.33,3.07-2.99,2.67-5.98,5.77-8.3,9.04-2.72,3.83-4.26,9.92-1.61,14.18,.98,1.58,2.58,2.69,4.38,3.14,1.19,.3,2.42,.18,3.61,.41-1.59-.3-.01,.03,.26,.08,.46,.09,.92,.19,1.38,.3,1.07,.25,2.13,.54,3.19,.85,7.55,2.2,15.1,4.49,22.59,6.91,4.21,1.36,8.39,2.78,12.52,4.34,2.06,.78,4.14,1.55,6.15,2.44-1.38-.61,.08,.04,.31,.14,.58,.25,1.16,.5,1.73,.76,1.01,.45,2.01,.91,3.01,1.39,2.83,1.34,6.61,.88,8.21-2.15,1.41-2.67,.88-6.78-2.15-8.21-12.63-5.97-25.93-10.17-39.27-14.2-3.15-.95-6.3-1.92-9.46-2.85-1.66-.49-3.32-.96-5.02-1.28-1.14-.22-2.3-.38-3.45-.51-.31-.04-.62-.07-.93-.1-.26-.02-.52-.04-.78-.06,3.49,4.19,4.93,5.25,4.33,3.19,.24,1.46,.04,.66,.06,.31v-.43c.05-.68,.03-.57-.06,.31-.09-.13,.22-.88,.27-1.05l.07-.21c.23-.62,.2-.55-.1,.22-.07-.43,.86-1.47,1.12-1.86,.82-1.21-.85,.94,.13-.15,.29-.32,.57-.65,.87-.97,1.11-1.19,2.27-2.33,3.41-3.48,.53-.54,1.06-1.09,1.6-1.62,.09-.09,.7-.56,.69-.64-.74,.54-.84,.64-.3,.3-.82,.29-1.02,.38-.61,.27l.15-.04c-.65,.2-1.31,.2-1.96,0,.98,.3,.45-.03-1.6-1.01-.89-.84-1.24-1.82-1.05-2.94v-1.1c.44-.88,.49-1.04,.16-.48,.56-.7,.62-.81,.18-.34-.39,.34-.39,.35,0,.04l.3-.23c-.23,.16-.47,.32-.71,.48-.47,.31-.94,.62-1.4,.93l-2.4,1.6c-3.58,2.38-7.13,4.61-9.59,8.23-1.77,2.6-.58,6.77,2.15,8.21,3.04,1.61,6.32,.62,8.21-2.15h0Z"/><path class="c" d="M344.6,96.73c.08,.01,.15,.04,.23,.05,.15,.02-.23-.14-.11-.04,.01,0,.19,.13,.2,.12-.03,.02-.25-.22-.08-.06,.22,.22,.42,.44,.62,.68s.41,.49,.61,.74c.1,.12,.19,.27,.3,.38-.24-.22-.07-.09,0,0,.05,.07,.11,.14,.16,.22,.37,.51,.72,1.05,1.01,1.62,.04,.08,.08,.16,.11,.24,.05,.1,.08,.31,0-.02,.04,.15,.12,.29,.17,.44,.11,.32,.19,.64,.25,.97l2.74-1.16c-1.13-1.64-2.38-3.2-3.75-4.64-.54-.57-1.58-.59-2.12,0s-.58,1.52,0,2.12c.63,.66,1.24,1.34,1.81,2.05,.13,.17,.27,.33,.4,.5,.24,.31-.19-.25,.05,.06,.07,.09,.14,.19,.21,.28,.28,.37,.55,.75,.81,1.14,.43,.62,1.15,.92,1.87,.61s1-1.02,.87-1.77c-.28-1.52-1.05-2.91-1.96-4.13-.48-.65-.99-1.27-1.51-1.89s-1.22-1.27-2.08-1.4c-.41-.07-.78-.07-1.16,.15-.31,.18-.61,.54-.69,.9-.16,.72,.22,1.71,1.05,1.85h0Z"/><path class="c" d="M345.57,97.56c.77-2.45-.64-4.91-2.96-5.79l.36,2.74,8.45-3.83-1.82-2.36-5.48,4.34c-.58,.46-.53,1.44-.12,1.97,.49,.63,1.24,.7,1.94,.39,1.22-.55,2.36-1.2,3.46-1.96l-2.05-2.05-1.35,2.64c-.88,1.71,1.65,3.21,2.59,1.51l.86-1.55c.8-1.44-1.18-3.12-2.36-1.82-2.94,3.26-3.47,8.49-.78,12.09,.7,.94,1.66,1.68,2.87,1.74,1.44,.08,2.76-.76,3.99-1.38l7.89-3.97c1.06-.53,2.53-.97,3.36-1.84,.97-1.03,.58-2.38,.21-3.57-.8-2.59-1.51-5.23-2.6-7.71-.44-.99-.92-2.18-1.77-2.9-1.21-1.02-2.55-.38-3.68,.38-2.18,1.47-4.2,3.19-5.98,5.13s-3.37,4.25-3.72,7.02,.34,5.38,1.94,7.52c.46,.61,1.32,1.04,2.05,.54,3.55-2.44,7.12-4.84,10.64-7.32,.79-.56,1.5-1.12,1.49-2.18-.01-.9-.38-1.85-.58-2.71l-1.51-6.45c-.21-.91-1.41-1.42-2.2-.9-2.88,1.92-5.54,4.15-7.88,6.7-.98,1.07-2.53,2.43-2.79,3.92-.13,.77,.14,1.42,.44,2.11,.38,.9,.77,1.79,1.16,2.69,.29,.67,.59,1.33,1.35,1.55,.95,.28,1.68-.27,2.35-.85,1.46-1.24,2.89-2.52,4.34-3.78l2.17-1.89c.56-.49,1.24-.98,1.41-1.75,.22-.93-.34-1.71-.6-2.56s-.25-1.69-.14-2.55c.14-1.09-1.4-1.93-2.26-1.3-2.36,1.75-4.77,3.53-6.62,5.85-1.62,2.03-3.37,5.11-1.19,7.39,.54,.56,1.59,.6,2.12,0l6.91-7.75c1.28-1.44-.83-3.57-2.12-2.12l-6.91,7.75h2.12c-.99-1.04,1.68-3.78,2.32-4.44,1.48-1.54,3.18-2.82,4.88-4.09l-2.26-1.3c-.16,1.24-.05,2.52,.36,3.7,.08,.22,.16,.52,.29,.71,.12,.46,.2,.45,.25-.01,.16-.35,.17-.44,0-.27-.29,.02-1.25,1.1-1.48,1.3l-2.94,2.57-1.55,1.35-.62,.54c-.09,.08-.85,.57-.45,.56l1.06,.44c-.3-.29-.58-1.4-.8-1.9-.15-.35-.26-.87-.5-1.15l-.12-.27c-.12,.15-.13,.14-.02-.02,.11-.46,.88-1.11,1.19-1.47,.48-.56,.98-1.1,1.5-1.64,1.97-2.04,4.15-3.85,6.51-5.42l-2.2-.9,1.32,5.64c.17,.72,.21,1.77,.57,2.42,.07,.66,.21,.55,.43-.34l-.69,.47-1.03,.71-9.26,6.37,2.05,.54c-2.13-2.84-2.08-6.4-.04-9.26,1.05-1.48,2.41-2.8,3.77-4,.7-.62,1.43-1.21,2.19-1.76,.32-.23,.81-.45,1.08-.75l.32-.2-.4-.28s.32,.54,.35,.59c.98,1.74,1.56,3.65,2.14,5.55,.29,.94,.58,1.87,.87,2.81,.12,.37,.36,.83,.37,1.22,0-.38,.49-.37-.25-.14-.32,.1-.64,.32-.94,.47l-5.82,2.93-2.63,1.32c-.5,.25-1,.5-1.5,.76-.4,.2-.95,.59-1.41,.59-1.37-.01-1.91-2.97-1.94-3.98-.06-1.73,.49-3.43,1.66-4.73l-2.36-1.82-.86,1.55,2.59,1.51,1.35-2.64c.63-1.23-.73-2.97-2.05-2.05-1.09,.76-2.24,1.41-3.46,1.96l1.82,2.36,5.48-4.34c.58-.46,.53-1.44,.12-1.97-.49-.63-1.24-.7-1.94-.39l-8.45,3.83c-1.3,.59-.71,2.34,.36,2.74,.84,.32,1.11,1.31,.86,2.1-.58,1.85,2.31,2.64,2.89,.8h0Z"/></g></svg>